<svg width="1360" height="800" viewBox="0 0 1360 800" fill="none" xmlns="http://www.w3.org/2000/svg">
<path opacity="0.3" d="M-2493.32 204.969C-2489.98 204.827 -2487.06 206.688 -2485.61 209.47L-2392.42 179.752C-2392.48 179.337 -2392.58 178.93 -2392.6 178.487C-2392.83 173.025 -2388.59 168.4 -2383.11 168.18C-2377.63 167.961 -2373.02 172.217 -2372.78 177.679C-2372.77 178.219 -2372.82 178.745 -2372.87 179.271L-2247.24 212.406C-2245.32 207.249 -2240.46 203.465 -2234.62 203.228C-2229.53 203.004 -2225.01 205.539 -2222.37 209.491L-2134.96 167.118C-2135.28 166.051 -2135.54 164.937 -2135.59 163.748C-2135.75 159.996 -2134.3 156.565 -2131.87 154.074L-2184.61 97.5387C-2185.83 98.347 -2187.25 98.8697 -2188.83 98.9413C-2193.41 99.1268 -2197.27 95.5824 -2197.46 91.0047C-2197.64 86.427 -2194.1 82.5634 -2189.52 82.3778C-2184.94 82.1924 -2181.08 85.7369 -2180.89 90.3146C-2180.82 92.3279 -2181.49 94.1886 -2182.63 95.6784L-2129.78 152.329C-2127.83 151.005 -2125.52 150.164 -2122.99 150.061C-2115.72 149.763 -2109.58 155.404 -2109.28 162.674C-2109.27 162.831 -2109.32 162.956 -2109.31 163.113L-1998.39 178.813C-1996.29 170.982 -1989.42 165.025 -1980.88 164.676C-1971.72 164.305 -1963.81 170.464 -1961.67 179.001L-1857.32 162.673C-1857.32 162.673 -1857.34 162.535 -1857.35 162.475C-1857.66 154.872 -1853.48 148.195 -1847.15 144.881L-1879.51 63.611C-1880.31 63.8083 -1881.11 63.927 -1881.97 63.9638C-1889.24 64.2619 -1895.35 58.6128 -1895.66 51.3624C-1895.78 48.3856 -1894.88 45.6467 -1893.32 43.3884L-1942.57 1.41823C-1944.21 2.89759 -1946.32 3.84845 -1948.71 3.95972C-1954.18 4.19001 -1958.76 -0.0249658 -1959.03 -5.47921L-2007.1 -9.84753C-2008.08 -5.61426 -2011.76 -2.38616 -2016.29 -2.19765C-2021.75 -1.96736 -2026.39 -6.23426 -2026.62 -11.6965C-2026.71 -13.8484 -2026.08 -15.8588 -2024.96 -17.5358L-2070.17 -57.0973C-2071.51 -56.002 -2073.18 -55.2988 -2075.05 -55.215C-2079.62 -55.0294 -2083.48 -58.5926 -2083.68 -63.1513C-2083.86 -67.729 -2080.3 -71.5818 -2075.74 -71.7782C-2071.14 -71.9528 -2067.3 -68.4193 -2067.08 -63.8496C-2067.02 -62.1212 -2067.47 -60.5117 -2068.32 -59.1618L-2023.13 -19.5812C-2021.5 -20.9927 -2019.4 -21.9245 -2017.07 -22.0198C-2011.63 -22.261 -2007.02 -18.0349 -2006.76 -12.5807L-1958.69 -8.21249C-1957.69 -12.4348 -1954.02 -15.6739 -1949.48 -15.8514C-1944.01 -16.0817 -1939.4 -11.8258 -1939.17 -6.3635C-1939.08 -4.24156 -1939.66 -2.27725 -1940.72 -0.616217L-1891.5 41.3131C-1889.26 39.1936 -1886.34 37.8015 -1883.02 37.6673C-1881.08 37.5783 -1879.22 37.9449 -1877.53 38.6444L-1860.78 7.22489C-1862.86 5.669 -1864.24 3.25374 -1864.36 0.48319C-1864.56 -4.45808 -1860.74 -8.63788 -1855.81 -8.82169C-1850.88 -9.03546 -1846.71 -5.18857 -1846.5 -0.266222C-1846.3 4.67505 -1850.14 8.84383 -1855.05 9.03867C-1856.22 9.09579 -1857.33 8.91168 -1858.37 8.53522L-1875.13 39.9546C-1871.78 42.2133 -1869.49 45.9379 -1869.32 50.2794C-1869.1 55.3293 -1871.79 59.7639 -1875.87 62.1545L-1843.49 143.455C-1842.1 143.049 -1840.65 142.773 -1839.13 142.718C-1828.63 142.29 -1819.76 150.437 -1819.32 160.919C-1819.17 165.073 -1820.36 168.931 -1822.5 172.145L-1739.7 239.875C-1735.86 235.931 -1730.56 233.359 -1724.6 233.109C-1721.69 233 -1718.89 233.452 -1716.3 234.343L-1687.02 169.114C-1690.51 166.876 -1692.89 163.048 -1693.08 158.598C-1693.38 151.328 -1687.74 145.19 -1680.48 144.911C-1673.21 144.613 -1667.07 150.254 -1666.77 157.523C-1666.46 164.774 -1672.13 170.92 -1679.37 171.21C-1680.79 171.272 -1682.15 171.043 -1683.43 170.682L-1712.75 235.938C-1706.18 239.605 -1701.59 246.496 -1701.25 254.571C-1700.8 265.691 -1708.54 275.241 -1719.1 277.429L-1707.21 419.812C-1695.62 420.263 -1686.16 429.514 -1685.67 441.263C-1685.49 445.89 -1686.69 450.247 -1688.94 453.923L-1604.05 521.446C-1600.94 518.546 -1596.85 516.635 -1592.25 516.442C-1590.87 516.378 -1589.52 516.498 -1588.23 516.742L-1569.35 460.736C-1576.59 457.264 -1581.71 450.018 -1582.07 441.452C-1582.47 431.569 -1576.43 422.937 -1567.67 419.582L-1583.79 363.071C-1584.31 363.129 -1584.8 363.246 -1585.34 363.292C-1593.54 363.632 -1600.49 357.247 -1600.81 349.055C-1601.15 340.852 -1594.77 333.906 -1586.57 333.585C-1584.37 333.491 -1582.24 333.914 -1580.33 334.714L-1559.65 298.671C-1562.11 296.641 -1563.78 293.63 -1563.92 290.192C-1564.13 285.3 -1561.25 280.975 -1557.04 279.062L-1579.73 204.998C-1580.23 205.085 -1580.72 205.183 -1581.21 205.203C-1587.65 205.472 -1593.08 200.472 -1593.36 194.046C-1593.63 187.602 -1588.61 182.19 -1582.18 181.91C-1575.74 181.641 -1570.32 186.641 -1570.03 193.067C-1569.83 197.959 -1572.69 202.265 -1576.92 204.167L-1554.23 278.261C-1553.72 278.174 -1553.26 278.065 -1552.74 278.037C-1548.06 277.858 -1543.9 280.459 -1541.9 284.391L-1503.26 270.358C-1503.37 269.842 -1503.46 269.337 -1503.49 268.816C-1503.72 263.354 -1499.46 258.739 -1494 258.509C-1488.54 258.278 -1483.92 262.534 -1483.69 267.997C-1483.46 273.459 -1487.69 278.084 -1493.19 278.323C-1497.09 278.471 -1500.53 276.334 -1502.28 273.122L-1540.91 287.136C-1540.75 287.812 -1540.64 288.504 -1540.61 289.231C-1540.34 295.676 -1545.35 301.117 -1551.79 301.387C-1553.39 301.447 -1554.92 301.199 -1556.34 300.682L-1577.01 336.707C-1573.64 339.311 -1571.35 343.26 -1571.14 347.849C-1570.87 354.166 -1574.63 359.702 -1580.09 362.079L-1563.97 418.56C-1562.89 418.351 -1561.79 418.182 -1560.66 418.152C-1552.33 417.81 -1544.88 422.059 -1540.75 428.657L-1501.93 408.794C-1502.41 407.433 -1502.76 405.991 -1502.84 404.458C-1503.18 396.255 -1496.79 389.338 -1488.58 388.998C-1480.38 388.658 -1473.45 395.033 -1473.11 403.236C-1472.77 411.439 -1479.15 418.385 -1487.35 418.706C-1492.63 418.937 -1497.37 416.33 -1500.18 412.28L-1538.97 432.135C-1538.03 434.475 -1537.42 436.971 -1537.33 439.652C-1536.8 452.001 -1546.42 462.487 -1558.78 462.979C-1560.64 463.063 -1562.46 462.876 -1564.22 462.515L-1583.1 518.588C-1577.36 521.55 -1573.3 527.331 -1573 534.248C-1572.96 535.102 -1573.07 535.948 -1573.14 536.767L-1552.49 540.428C-1551.23 536.663 -1547.76 533.844 -1543.53 533.656C-1538.08 533.445 -1533.44 537.693 -1533.2 543.155C-1532.97 548.618 -1537.23 553.232 -1542.69 553.462C-1548.18 553.701 -1552.8 549.445 -1553.01 543.994C-1553.03 543.757 -1552.97 543.535 -1552.97 543.31L-1573.63 539.638C-1575.33 546.161 -1580.43 551.371 -1587.08 552.99L-1577.71 655.986C-1567.95 656.317 -1559.68 663.037 -1557.19 672.25L-1487.42 659.98C-1487.43 659.823 -1487.48 659.663 -1487.48 659.486C-1487.89 649.3 -1480.01 640.719 -1469.83 640.282C-1466.15 640.13 -1462.69 641.093 -1459.75 642.818L-1424.18 594.636C-1426.84 592.066 -1428.56 588.542 -1428.72 584.564C-1429.06 576.361 -1422.69 569.434 -1414.48 569.094C-1406.28 568.754 -1399.35 575.128 -1399.01 583.331C-1398.67 591.534 -1405.02 598.472 -1413.24 598.801C-1416.08 598.905 -1418.73 598.188 -1421.02 596.913L-1456.59 645.095C-1453.11 648.293 -1450.84 652.81 -1450.62 657.938C-1450.49 660.866 -1451.14 663.65 -1452.28 666.197L-1411.26 687.154C-1409.48 684.644 -1406.62 682.915 -1403.31 682.781C-1397.64 682.543 -1392.83 686.957 -1392.58 692.637C-1392.34 698.305 -1396.76 703.125 -1402.42 703.344C-1408.11 703.57 -1412.89 699.167 -1413.14 693.469C-1413.2 692.172 -1412.98 690.911 -1412.58 689.749L-1453.66 668.76C-1456.79 673.57 -1462.12 676.856 -1468.28 677.113C-1476.96 677.483 -1484.45 671.771 -1486.73 663.784L-1556.52 676.073C-1556.5 676.388 -1556.44 676.725 -1556.44 677.029C-1556.24 681.666 -1557.52 686.028 -1559.83 689.672L-1447.53 781.733C-1444.45 778.939 -1440.46 777.101 -1435.99 776.929C-1428.22 776.592 -1421.39 781.167 -1418.41 787.863L-1292.57 753.003C-1292.67 752.262 -1292.74 751.512 -1292.8 750.726C-1293.13 742.856 -1289.27 735.817 -1283.23 731.672L-1293.82 713.819C-1294.87 714.197 -1295.96 714.474 -1297.13 714.531C-1303.31 714.777 -1308.52 709.976 -1308.8 703.805C-1308.82 703.441 -1308.76 703.122 -1308.73 702.761L-1331.55 695.794C-1332.59 698.025 -1334.78 699.588 -1337.39 699.696C-1341.12 699.845 -1344.28 696.93 -1344.45 693.196C-1344.61 689.443 -1341.7 686.277 -1337.95 686.139C-1334.2 685.983 -1331.05 688.886 -1330.89 692.639C-1330.88 692.748 -1330.91 692.834 -1330.89 692.943L-1308.2 699.882C-1306.78 695.548 -1302.86 692.334 -1298.04 692.134C-1297.19 692.097 -1296.4 692.174 -1295.59 692.31L-1284.1 651.089C-1287.94 649.428 -1290.72 645.723 -1290.91 641.273C-1291.17 635.083 -1286.36 629.855 -1280.17 629.59C-1273.98 629.325 -1268.75 634.137 -1268.49 640.327C-1268.25 646.524 -1273.03 651.744 -1279.24 651.999C-1279.94 652.025 -1280.61 651.965 -1281.27 651.886L-1292.82 693.232C-1289.17 694.96 -1286.56 698.537 -1286.38 702.859C-1286.21 706.818 -1288.15 710.396 -1291.18 712.488L-1280.72 730.167C-1278 728.782 -1274.95 727.917 -1271.72 727.787C-1267.59 727.624 -1263.71 728.602 -1260.33 730.452L-1152.86 580.228C-1155.78 577.504 -1157.98 573.962 -1159.06 569.977L-1184.28 574.538C-1184.09 581.644 -1189.62 587.642 -1196.75 587.919C-1203.94 588.212 -1210.02 582.634 -1210.31 575.443C-1210.63 568.241 -1205.03 562.179 -1197.84 561.886C-1191.91 561.644 -1186.83 565.389 -1185 570.712L-1159.76 566.143C-1159.77 565.78 -1159.84 565.413 -1159.85 565.031C-1159.98 561.593 -1159.32 558.34 -1158.04 555.389L-1244.79 511.694C-1247.92 516.553 -1253.29 519.895 -1259.52 520.138C-1268.91 520.525 -1276.88 513.774 -1278.4 504.716L-1332.33 509.619C-1332.54 514.751 -1336.61 518.965 -1341.84 519.18C-1347.35 519.408 -1352 515.13 -1352.21 509.63C-1352.44 504.118 -1348.16 499.496 -1342.66 499.258C-1337.83 499.068 -1333.64 502.348 -1332.55 506.892L-1278.7 501.994C-1278.85 492.685 -1272.05 484.892 -1262.99 483.535L-1265.22 430.269C-1270.78 429.563 -1275.19 424.966 -1275.43 419.2C-1275.53 416.617 -1274.75 414.184 -1273.41 412.207L-1307.77 382.068C-1310.41 384.554 -1313.86 386.199 -1317.76 386.347C-1326.36 386.712 -1333.63 380.014 -1334 371.417C-1334.04 370.356 -1333.96 369.342 -1333.81 368.342L-1384.04 357.151C-1385.28 360.976 -1388.8 363.822 -1393.07 364.007C-1398.58 364.234 -1403.24 359.957 -1403.44 354.456C-1403.68 348.964 -1399.41 344.312 -1393.9 344.084C-1388.39 343.876 -1383.76 348.143 -1383.5 353.646C-1383.49 354.186 -1383.53 354.742 -1383.6 355.257L-1333.31 366.461C-1331.63 360.663 -1326.69 356.265 -1320.5 355.423L-1322.58 305.272C-1328.36 304.768 -1333.05 300.116 -1333.29 294.192C-1333.42 290.608 -1331.91 287.386 -1329.48 285.151L-1362 225.313C-1362.59 225.503 -1363.22 225.641 -1363.9 225.678C-1368.07 225.849 -1371.58 222.61 -1371.76 218.464C-1371.93 214.299 -1368.7 210.808 -1364.53 210.618C-1360.39 210.455 -1356.87 213.675 -1356.7 217.84C-1356.59 220.277 -1357.68 222.475 -1359.43 223.919L-1327.08 283.433C-1325.58 282.632 -1323.89 282.116 -1322.1 282.037C-1315.66 281.768 -1310.22 286.779 -1309.93 293.205C-1309.69 299.177 -1314.05 304.266 -1319.79 305.165L-1317.62 355.292C-1309.66 355.691 -1303.16 362.02 -1302.83 370.145C-1302.68 373.789 -1303.85 377.129 -1305.85 379.89L-1271.46 410.051C-1269.53 408.334 -1267.03 407.201 -1264.24 407.094C-1257.8 406.824 -1252.36 411.835 -1252.07 418.261C-1251.82 424.038 -1255.84 428.99 -1261.31 430.151L-1259.11 483.425C-1249.83 484.032 -1242.25 491.464 -1241.86 500.983C-1241.75 503.547 -1242.18 506.001 -1243.04 508.262L-1156.2 551.981C-1153.36 547.713 -1149.04 544.474 -1143.94 542.997L-1160.97 462.276C-1161.34 462.313 -1161.68 462.42 -1162.06 462.426C-1172.23 462.844 -1180.83 454.948 -1181.26 444.751C-1181.7 434.572 -1173.77 425.965 -1163.59 425.558C-1160.81 425.44 -1158.2 425.989 -1155.81 426.966L-1124.51 369.345C-1128.05 366.77 -1130.46 362.706 -1130.66 357.99C-1130.91 351.556 -1127.04 345.988 -1121.41 343.661L-1139.06 285.99C-1139.38 286.029 -1139.71 286.117 -1140.03 286.138C-1145.13 286.351 -1149.42 282.408 -1149.63 277.309C-1149.67 276.582 -1149.61 275.91 -1149.48 275.251L-1206.2 255.635C-1207.7 258.455 -1210.55 260.45 -1213.95 260.608C-1219.05 260.821 -1223.36 256.867 -1223.57 251.769C-1223.68 248.979 -1222.52 246.443 -1220.64 244.674L-1247.02 206.38C-1247.76 206.689 -1248.55 206.886 -1249.39 206.934C-1253.14 207.09 -1256.31 204.176 -1256.45 200.434C-1256.61 196.681 -1253.69 193.515 -1249.95 193.377C-1246.2 193.22 -1243.03 196.135 -1242.89 199.877C-1242.81 201.792 -1243.55 203.561 -1244.78 204.849L-1218.41 243.102C-1217.29 242.562 -1216.06 242.215 -1214.74 242.167C-1209.66 241.943 -1205.34 245.926 -1205.14 250.995C-1205.12 251.711 -1205.19 252.403 -1205.3 253.072L-1148.58 272.689C-1147.1 269.858 -1144.22 267.855 -1140.81 267.726C-1140.01 267.687 -1139.26 267.79 -1138.51 267.943L-1117.44 211.746C-1120.16 210.25 -1122.04 207.423 -1122.19 204.101C-1122.35 200.348 -1120.24 197.045 -1117.08 195.462L-1130.62 153.648C-1130.78 153.658 -1130.91 153.709 -1131.07 153.719C-1134.82 153.876 -1137.99 150.961 -1138.13 147.219C-1138.28 143.466 -1135.37 140.3 -1131.63 140.162C-1127.87 140.006 -1124.73 142.909 -1124.57 146.662C-1124.47 149.294 -1125.88 151.61 -1128.01 152.805L-1114.46 194.649C-1114.09 194.583 -1113.75 194.506 -1113.33 194.491C-1109.87 194.347 -1106.8 196.168 -1105.11 198.934L-1059.41 179.71C-1059.49 179.363 -1059.54 179.026 -1059.56 178.662C-1059.7 174.921 -1056.79 171.754 -1053.05 171.587C-1049.32 171.419 -1046.15 174.334 -1045.99 178.086C-1045.84 181.839 -1048.74 184.987 -1052.49 185.143C-1054.92 185.233 -1057.07 184.065 -1058.34 182.195L-1104.02 201.411C-1103.86 202.008 -1103.77 202.641 -1103.73 203.319C-1103.5 208.399 -1107.48 212.698 -1112.56 212.921C-1113.36 212.961 -1114.11 212.857 -1114.86 212.705L-1135.94 268.902C-1133.22 270.417 -1131.31 273.236 -1131.18 276.546C-1131.03 280.348 -1133.2 283.716 -1136.44 285.256L-1118.8 342.867C-1118.03 342.708 -1117.23 342.56 -1116.41 342.531C-1108.2 342.191 -1101.28 348.565 -1100.93 356.768C-1100.59 364.971 -1106.97 371.898 -1115.17 372.238C-1117.26 372.319 -1119.28 371.962 -1121.1 371.265L-1152.38 428.848C-1147.79 432.024 -1144.63 437.211 -1144.38 443.214C-1144.02 451.702 -1149.47 458.989 -1157.16 461.466L-1140.23 542.26C-1139.75 542.21 -1139.25 542.142 -1138.76 542.122C-1133.57 541.915 -1128.7 543.511 -1124.83 546.38L-1091.29 508.286C-1093.08 506.14 -1094.25 503.474 -1094.37 500.497C-1094.68 493.295 -1089.09 487.233 -1081.89 486.921C-1074.69 486.628 -1068.6 492.217 -1068.32 499.426C-1068.02 506.617 -1073.6 512.691 -1080.79 512.984C-1083.58 513.091 -1086.19 512.316 -1088.38 510.901L-1121.89 548.987C-1119.17 551.845 -1117.21 555.451 -1116.33 559.492L-952.158 547.348C-951.771 539.414 -947.133 532.52 -940.394 528.985L-955.808 492.331C-956.215 492.424 -956.66 492.495 -957.103 492.517C-962.202 492.731 -966.493 488.788 -966.707 483.689C-966.772 482.01 -966.364 480.427 -965.614 479.042L-999.943 453.362C-1001.52 454.874 -1003.59 455.877 -1005.94 455.961C-1011.04 456.174 -1015.35 452.221 -1015.54 447.133C-1015.55 446.8 -1015.5 446.48 -1015.49 446.157L-1043.08 441.412C-1043.94 444.026 -1046.33 445.98 -1049.24 446.088C-1053 446.245 -1056.14 443.342 -1056.3 439.589C-1056.46 435.836 -1053.54 432.669 -1049.79 432.513C-1046.05 432.375 -1042.87 435.271 -1042.73 439.013C-1042.72 439.17 -1042.76 439.324 -1042.77 439.471L-1015.15 444.227C-1014.29 441.192 -1011.93 438.767 -1008.85 437.893L-1014.44 391.5C-1017.75 391.184 -1020.43 388.475 -1020.55 385.067C-1020.64 383.2 -1019.96 381.497 -1018.78 380.206L-1052.64 339.013C-1053.58 339.584 -1054.66 339.97 -1055.85 340.016C-1059.6 340.172 -1062.77 337.258 -1062.91 333.516C-1063.06 329.763 -1060.13 326.608 -1056.41 326.459C-1052.66 326.302 -1049.49 329.217 -1049.33 332.97C-1049.25 334.836 -1049.93 336.54 -1051.09 337.813L-1017.23 379.005C-1016.3 378.434 -1015.2 378.059 -1014.03 378.002C-1010.29 377.834 -1007.11 380.76 -1006.95 384.513C-1006.82 387.569 -1008.77 390.205 -1011.5 391.177L-1005.91 437.57C-1001.16 437.757 -997.254 441.53 -997.064 446.362C-996.998 448.042 -997.406 449.624 -998.145 450.991L-963.846 476.678C-962.285 475.155 -960.197 474.164 -957.838 474.06C-956.699 474.011 -955.603 474.214 -954.584 474.55L-939.006 444.373C-940.425 443.2 -941.359 441.449 -941.456 439.473C-941.613 435.72 -938.699 432.554 -934.957 432.416C-931.223 432.249 -928.037 435.174 -927.899 438.916C-927.741 442.669 -930.656 445.835 -934.398 445.973C-935.095 446 -935.765 445.891 -936.413 445.744L-952.021 475.929C-949.863 477.528 -948.376 480.028 -948.256 482.926C-948.118 486.188 -949.705 489.111 -952.201 490.852L-936.836 527.504C-935.008 526.918 -933.104 526.552 -931.061 526.469C-927.072 526.297 -923.296 527.239 -919.98 528.977L-842.122 416.436C-846.4 412.602 -849.179 407.134 -849.445 400.944C-849.773 393.33 -846.156 386.453 -840.426 382.26L-876.049 323.078C-877.517 323.695 -879.059 324.092 -880.72 324.169C-888.196 324.474 -894.531 318.645 -894.856 311.158C-894.892 310.608 -894.8 310.054 -894.756 309.498L-957.198 295.193C-958.622 298.184 -961.564 300.349 -965.13 300.488C-970.229 300.701 -974.529 296.729 -974.734 291.66C-974.94 286.591 -970.976 282.263 -965.888 282.069C-960.819 281.864 -956.479 285.809 -956.284 290.897C-956.274 291.054 -956.312 291.209 -956.313 291.385L-893.92 305.688C-892.021 300.824 -887.407 297.25 -881.847 297.026C-879.852 296.94 -877.954 297.328 -876.213 298.031L-855.45 262.462C-857.207 260.867 -858.344 258.594 -858.455 256.03C-858.68 250.95 -854.697 246.632 -849.628 246.428C-844.529 246.215 -840.229 250.187 -840.024 255.255C-839.81 260.354 -843.752 264.645 -848.851 264.858C-849.972 264.918 -851.067 264.715 -852.067 264.39L-872.852 299.996C-869.878 302.37 -867.885 305.919 -867.719 310.006C-867.524 314.437 -869.527 318.432 -872.703 321.044L-837.08 380.227C-834.415 378.936 -831.487 378.152 -828.352 378.017C-817.693 377.58 -808.511 384.775 -806.069 394.721L-700.054 382.032C-699.911 377.19 -697.933 372.801 -694.7 369.565L-728.222 327.962C-731.415 329.73 -735.415 329.921 -738.883 328.096C-744.364 325.209 -746.475 318.408 -743.588 312.928C-741.342 308.643 -736.693 306.453 -732.124 307.071L-719.825 268.661C-724.575 265.515 -726.298 259.267 -723.579 254.119C-723.113 253.226 -722.519 252.458 -721.859 251.753L-754.994 201.912C-755.61 202.061 -756.284 202.177 -756.932 202.207C-762.031 202.42 -766.323 198.478 -766.536 193.379C-766.761 188.299 -762.808 183.99 -757.69 183.788C-752.621 183.583 -748.31 187.536 -748.086 192.616C-747.963 195.641 -749.321 198.343 -751.505 200.113L-718.766 249.371C-715.612 247.758 -711.764 247.656 -708.41 249.416C-702.909 252.313 -700.788 259.095 -703.685 264.594C-706.109 269.231 -711.336 271.415 -716.226 270.259L-728.401 308.235C-722.919 311.122 -720.808 317.922 -723.695 323.403C-724.105 324.201 -724.627 324.885 -725.186 325.548L-691.627 367.173C-688.966 365.451 -685.87 364.334 -682.451 364.187C-676.134 363.919 -670.441 366.878 -666.921 371.587L-640.305 355.763C-640.581 354.973 -640.795 354.117 -640.82 353.243C-641.026 348.175 -637.073 343.865 -631.974 343.652C-626.875 343.439 -622.595 347.401 -622.37 352.48C-622.156 357.579 -626.117 361.859 -631.216 362.072C-634.017 362.197 -636.543 361.016 -638.331 359.126L-664.936 374.93C-663.965 377.056 -663.36 379.376 -663.254 381.862C-663.097 385.615 -664.081 389.112 -665.876 392.091L-586.421 457.386C-582.71 453.846 -577.744 451.587 -572.202 451.352C-560.039 450.848 -549.787 460.303 -549.281 472.465C-549.236 473.349 -549.278 474.209 -549.35 475.077L-418.728 501.799C-416.784 496.507 -412.479 492.376 -407.004 490.637L-421.712 424.235C-425.485 424.733 -429.408 424.135 -433.039 422.241C-439.993 418.58 -443.726 411.221 -443.157 403.847L-483.453 396.948C-483.643 397.495 -483.832 398.042 -484.109 398.564C-487.006 404.064 -493.777 406.166 -499.277 403.268C-504.759 400.381 -506.881 393.6 -503.983 388.1C-501.116 382.608 -494.285 380.491 -488.804 383.378C-484.908 385.425 -482.731 389.485 -482.853 393.632L-442.526 400.524C-442.17 399.164 -441.698 397.82 -440.992 396.511C-439.92 394.478 -438.504 392.77 -436.889 391.328L-487.487 324.485C-493.046 327.943 -500.206 328.532 -506.399 325.259C-512.937 321.838 -516.543 315.134 -516.502 308.238L-567.61 303.178C-567.817 304.018 -568.122 304.852 -568.522 305.632C-571.419 311.131 -578.22 313.241 -583.701 310.354C-589.202 307.456 -591.313 300.656 -588.415 295.156C-585.529 289.676 -578.728 287.566 -573.247 290.453C-569.609 292.377 -567.503 295.992 -567.3 299.796L-516.162 304.848C-515.828 303.046 -515.288 301.236 -514.402 299.525C-511.581 294.158 -506.558 290.795 -501.026 289.746L-510.135 195.184C-512.593 195.154 -515.07 194.632 -517.398 193.415C-525.189 189.321 -528.188 179.684 -524.084 171.876C-519.98 164.067 -510.324 161.081 -502.534 165.175C-494.743 169.268 -491.755 178.924 -495.848 186.713C-498.16 191.112 -502.258 193.923 -506.782 194.846L-497.685 289.427C-494.646 289.414 -491.566 290.03 -488.678 291.546C-479.377 296.436 -475.794 307.95 -480.713 317.258C-481.767 319.301 -483.191 320.98 -484.817 322.44L-434.188 389.276C-428.63 385.817 -421.481 385.247 -415.276 388.501C-413.319 389.53 -411.668 390.913 -410.231 392.45L-362.174 355.239C-365.175 350.374 -365.693 344.14 -362.84 338.716C-359.808 332.94 -353.825 329.752 -347.699 329.905L-338.71 259.253C-339.52 259.038 -340.306 258.736 -341.075 258.317C-346.87 255.274 -349.104 248.075 -346.062 242.28C-343.019 236.485 -335.83 234.271 -330.035 237.314C-324.239 240.357 -322.005 247.557 -325.067 253.341C-327.146 257.292 -331.171 259.539 -335.38 259.61L-344.372 330.311C-343.02 330.637 -341.673 331.061 -340.371 331.737C-332.247 335.998 -329.128 346.082 -333.399 354.224C-333.53 354.451 -333.699 354.656 -333.86 354.892L-293.274 379.183C-290.717 375.76 -286.745 373.431 -282.137 373.238C-274.012 372.903 -267.168 379.203 -266.831 387.328C-266.484 395.433 -272.796 402.295 -280.91 402.611C-289.015 402.957 -295.879 396.646 -296.207 388.551C-296.305 386.096 -295.755 383.787 -294.758 381.71L-335.504 357.302C-340.435 363.042 -348.865 364.867 -355.857 361.184C-357.5 360.311 -358.881 359.16 -360.107 357.871L-408.175 395.101C-404.599 400.677 -403.974 407.907 -407.301 414.194C-409.714 418.811 -413.777 421.997 -418.393 423.474L-403.685 489.876C-403.161 489.8 -402.683 489.672 -402.143 489.655C-397.929 489.487 -394.008 490.791 -390.822 493.06L-378.62 479.975C-379.767 478.505 -380.492 476.698 -380.597 474.692C-380.8 469.575 -376.828 465.276 -371.718 465.045C-366.6 464.843 -362.289 468.796 -362.087 473.914C-361.865 479.042 -365.837 483.34 -370.955 483.543C-372.998 483.626 -374.903 483.031 -376.486 481.966L-388.573 494.939C-387.222 496.274 -386.03 497.796 -385.123 499.507L-383.955 502.909L-308.289 491.816C-308.703 479.757 -299.292 469.583 -287.208 469.084C-279.623 468.765 -272.772 472.342 -268.564 478.004L-201.474 439.458L-202.685 435.955C-202.857 435.073 -203.029 434.19 -203.063 433.286C-203.483 423.119 -195.588 414.519 -185.389 414.093C-184.673 414.077 -183.993 414.168 -183.271 414.23L-177.623 377.891C-185.562 376.11 -191.648 369.238 -192.009 360.72C-192.143 357.233 -191.261 353.955 -189.688 351.1L-206.478 333.981C-207.662 334.762 -209.053 335.247 -210.557 335.313C-215.086 335.502 -218.912 331.979 -219.101 327.451C-219.29 322.922 -215.768 319.096 -211.239 318.908C-206.71 318.719 -202.902 322.231 -202.694 326.77C-202.608 328.765 -203.286 330.596 -204.413 332.067L-188.188 348.809C-184.976 344.602 -180.053 341.762 -174.354 341.516C-170.601 341.36 -167.073 342.336 -164.067 344.173L-130.633 294.882C-132.359 293.279 -133.478 291.017 -133.6 288.472C-133.77 284.61 -131.498 281.199 -128.173 279.684L-139.645 239.092C-139.784 239.113 -139.933 239.153 -140.091 239.163C-144.365 239.347 -147.997 236.013 -148.171 231.72C-148.355 227.447 -145.021 223.815 -140.728 223.642C-136.454 223.458 -132.822 226.793 -132.637 231.066C-132.505 234.249 -134.329 237.06 -137.005 238.369L-125.533 278.961C-125.285 278.927 -125.035 278.844 -124.761 278.851C-120.39 278.672 -116.653 281.562 -115.512 285.58L-76.716 280.728C-76.509 276.782 -73.3554 273.551 -69.3174 273.382C-65.0433 273.198 -61.4113 276.533 -61.2266 280.806C-61.0528 285.099 -64.3761 288.711 -68.669 288.885C-72.2648 289.031 -75.3506 286.719 -76.3778 283.424L-115.193 288.264C-115.306 293.098 -119.111 297.064 -123.993 297.251C-125.545 297.314 -127.022 296.942 -128.346 296.303L-161.876 345.715C-157.972 348.929 -155.374 353.661 -155.162 359.113C-154.724 369.291 -162.649 377.899 -172.817 378.317C-173.544 378.352 -174.214 378.243 -174.917 378.191L-180.565 414.53C-172.636 416.329 -166.54 423.183 -166.178 431.701C-166.165 432.29 -166.257 432.843 -166.292 433.428L-35.5835 460.175C-33.643 454.451 -29.4304 449.736 -23.9388 447.224L-35.9906 415.642C-36.9168 415.891 -37.8972 416.057 -38.9093 416.104C-46.4941 416.422 -52.8933 410.53 -53.1937 402.957C-53.5052 395.403 -47.6138 389.005 -40.048 388.676C-32.493 388.366 -26.0751 394.268 -25.7635 401.822C-25.5165 407.344 -28.6309 412.214 -33.2618 414.591L-21.2021 446.203C-19.4253 445.663 -17.5814 445.313 -15.6656 445.232C-10.7239 445.03 -6.12579 446.472 -2.35219 449.08L70.3649 360.493C67.2613 357.338 65.2204 353.129 65.035 348.375C64.6156 338.207 72.5106 329.607 82.6899 329.171C83.6233 329.129 84.5183 329.241 85.3941 329.343L102.541 249.636C97.508 247.766 93.8226 243.037 93.5951 237.35C93.3908 232.585 95.6782 228.273 99.2738 225.677L69.4396 174.231C68.363 174.695 67.1789 174.997 65.9415 175.04C60.2536 175.267 55.4516 170.853 55.1943 165.173C54.9669 159.486 59.3915 154.666 65.0793 154.439C70.7672 154.212 75.5693 158.626 75.8267 164.306C75.9716 167.774 74.3732 170.892 71.8142 172.875L101.64 224.29C103.212 223.581 104.915 223.125 106.741 223.068C111.634 222.862 116.016 225.291 118.612 229.063L167.619 202.326C167.23 201.293 166.942 200.217 166.892 199.078C166.665 193.39 171.089 188.57 176.777 188.344C182.465 188.117 187.267 192.531 187.514 198.23C187.741 203.917 183.327 208.718 177.639 208.945C174.093 209.094 170.852 207.4 168.905 204.735L119.929 231.465C120.546 232.933 120.96 234.535 121.044 236.226C121.356 243.78 115.464 250.178 107.899 250.507C107.389 250.516 106.892 250.457 106.385 250.416L89.2351 330.171C96.3281 332.499 101.593 338.998 101.925 346.868C102.352 357.065 94.449 365.635 84.2699 366.072C80.2618 366.233 76.5092 365.076 73.3978 363.027L0.702738 451.576C3.46113 454.28 5.51085 457.686 6.54384 461.54L55.4469 452.876C55.2162 445.444 60.9899 439.206 68.4472 438.89C72.7215 438.706 76.5877 440.585 79.2011 443.583L99.5264 429.204C98.9481 428.062 98.5926 426.796 98.5282 425.42C98.3224 420.352 102.276 416.042 107.356 415.818C112.455 415.605 116.754 419.578 116.96 424.646C117.173 429.745 113.202 434.043 108.132 434.248C105.391 434.358 102.9 433.248 101.12 431.387L80.7841 445.785C81.8126 447.591 82.4926 449.651 82.5752 451.871C82.6265 453.138 82.4555 454.352 82.1791 455.531L134.126 476.027C135.718 473.663 138.333 472.066 141.388 471.936C146.488 471.723 150.787 475.695 150.993 480.764C151.206 485.863 147.245 490.142 142.146 490.355C137.066 490.579 132.767 486.607 132.542 481.527C132.512 480.878 132.558 480.273 132.664 479.653L80.755 459.179C78.5022 463.081 74.4099 465.795 69.5658 466.003C63.3757 466.268 58.0376 462.302 56.1682 456.702L7.20539 465.382C7.23365 465.727 7.28398 466.034 7.29342 466.368C7.48452 471.024 6.20363 475.386 3.89767 479.03L83.3906 544.346C86.4688 541.552 90.4489 539.734 94.9184 539.562C103.662 539.205 111.223 545.01 113.442 553.11L219.427 540.428C219.481 528.741 228.697 519.035 240.496 518.548C244.504 518.387 248.29 519.311 251.588 521.038L329.445 408.496C325.167 404.663 322.358 399.202 322.123 393.005C322.067 391.482 322.154 390.018 322.389 388.562L297.672 382.853C296.173 386.761 292.474 389.626 288.023 389.809C282.07 390.059 277.035 385.435 276.784 379.481C276.534 373.528 281.157 368.495 287.111 368.245C293.065 367.995 298.108 372.649 298.35 378.573C298.37 379.064 298.313 379.511 298.265 379.988L323.031 385.7C324.193 381.85 326.389 378.395 329.331 375.75L299.769 336.609C297.966 337.588 295.936 338.26 293.746 338.334C286.172 338.634 279.781 332.772 279.451 325.206C279.375 323.369 279.686 321.605 280.274 319.974L248.889 304.683C247.284 306.938 244.74 308.5 241.763 308.625C236.664 308.838 232.384 304.877 232.159 299.797C231.964 294.709 235.907 290.419 240.987 290.195C246.086 289.982 250.385 293.954 250.591 299.023C250.635 300.084 250.457 301.093 250.173 302.065L281.558 317.357C283.878 313.645 287.91 311.123 292.615 310.936C293.44 310.907 294.24 310.965 295.037 311.072L305.779 267.748C302.164 266.266 299.52 262.795 299.337 258.649C299.195 255.309 300.686 252.331 303.061 250.318L278.987 208.057C277.881 208.53 276.667 208.839 275.389 208.909C269.701 209.136 264.888 204.741 264.66 199.053C264.433 193.366 268.858 188.546 274.545 188.319C276.776 188.218 278.873 188.873 280.607 190.026L322.351 139.775C321.398 138.669 320.796 137.261 320.725 135.679C320.567 131.926 323.482 128.76 327.224 128.622C330.977 128.465 334.144 131.38 334.282 135.122C334.421 138.863 331.536 142.022 327.783 142.179C326.467 142.227 325.204 141.877 324.143 141.264L282.4 191.515C284.069 193.262 285.185 195.573 285.274 198.175C285.432 201.752 283.73 204.961 281.054 206.927L305.02 249.024C306.293 248.395 307.7 247.971 309.222 247.915C314.891 247.677 319.712 252.102 319.959 257.801C320.186 263.488 315.772 268.29 310.084 268.516C309.593 268.536 309.127 268.468 308.619 268.428L297.878 311.752C302.941 313.614 306.664 318.365 306.91 324.064C307.075 328.023 305.485 331.651 302.907 334.279L332.47 373.42C335.596 371.462 339.245 370.26 343.204 370.096C347.321 369.922 351.221 370.911 354.599 372.761L364.29 357.419C361.756 355.552 360.01 352.625 359.881 349.217C359.62 343.282 364.252 338.278 370.187 338.018C376.121 337.757 381.137 342.37 381.388 348.324C381.63 354.247 377.007 359.281 371.083 359.522C369.579 359.589 368.164 359.327 366.85 358.847L357.083 374.321C361.459 377.504 364.604 382.25 365.703 387.784L529.8 375.644C530.012 369.327 532.899 363.67 537.396 359.775L493.598 297.035C491.174 298.388 488.457 299.244 485.499 299.38C475.32 299.817 466.73 291.902 466.291 281.724C466.177 279.208 466.587 276.793 467.416 274.569L439.558 260.783C437.297 263.999 433.676 266.202 429.461 266.37C422.27 266.663 416.195 261.084 415.901 253.894C415.658 248.147 419.199 243.195 424.265 241.246L414.462 204.674C414.166 204.705 413.886 204.796 413.582 204.797C407.894 205.024 403.092 200.61 402.854 194.941C402.627 189.254 407.041 184.453 412.739 184.207C418.427 183.981 423.229 188.395 423.457 194.082C423.633 198.502 420.97 202.37 417.099 203.999L426.894 240.541C427.388 240.473 427.866 240.345 428.376 240.337C435.568 240.043 441.643 245.622 441.956 252.823C442.019 254.375 441.752 255.888 441.304 257.321L469.181 271.118C472.317 266.211 477.704 262.83 483.973 262.56C486.508 262.458 488.953 262.859 491.196 263.7L520.273 205.505C515.108 202.421 511.529 196.895 511.259 190.45C510.935 182.611 515.569 175.765 522.332 172.801L493.4 98.7922C492.664 98.9734 491.882 99.1029 491.087 99.1237C484.897 99.3887 479.668 94.5768 479.421 88.3981C479.156 82.2086 483.967 76.9806 490.157 76.7156C492.043 76.6428 493.81 77.082 495.402 77.8244L530.709 22.1398C529.485 20.9785 528.7 19.3636 528.613 17.5455C528.456 13.7926 531.37 10.6262 535.124 10.4696C538.866 10.3318 542.044 13.2274 542.182 16.9693C542.339 20.722 539.425 23.8886 535.683 24.0264C534.73 24.0572 533.827 23.9146 533.004 23.5908L497.727 79.2674C500.108 81.2235 501.699 84.1119 501.853 87.4332C502.029 91.8535 499.6 95.7547 495.964 97.7214L524.939 171.83C526.224 171.486 527.57 171.254 528.946 171.189C538.496 170.793 546.575 177.756 547.88 187.045L580.47 184.849C580.81 179.666 584.983 175.458 590.269 175.227C595.957 175 600.778 179.425 601.005 185.113C601.233 190.8 596.819 195.601 591.131 195.828C586.002 196.049 581.612 192.453 580.61 187.582L548.08 189.762C548.005 199.518 540.334 207.641 530.48 208.039C528.152 208.134 525.94 207.766 523.856 207.043L494.691 265.39C499.58 268.515 502.943 273.891 503.206 280.13C503.454 285.956 500.906 291.202 496.831 294.759L540.583 357.448C543.611 355.66 547.127 354.559 550.91 354.394C555.056 354.212 558.964 355.231 562.38 357.102L669.82 206.886C665.677 203.08 663.001 197.696 662.748 191.615C662.262 179.464 671.697 169.203 683.841 168.688C693.312 168.297 701.617 173.951 705.07 182.233L830.966 147.356C830.917 146.873 830.778 146.414 830.769 145.904C830.331 135.726 838.256 127.118 848.443 126.711C848.758 126.691 849.067 126.768 849.401 126.759L856.363 67.1858C851.917 65.8309 848.578 61.8576 848.383 56.9462C848.242 53.7333 849.506 50.8009 851.575 48.6616L805.458 -15.7962C803.555 -14.7738 801.427 -14.108 799.129 -14.0208C790.925 -13.6807 783.996 -20.0549 783.655 -28.2579C783.64 -28.494 783.693 -28.7162 783.689 -28.9712L726.686 -36.904C725.27 -32.5697 721.332 -29.3372 716.518 -29.1365C710.328 -28.8715 705.099 -33.6837 704.863 -39.8813C704.597 -46.0708 709.409 -51.2987 715.607 -51.5338C721.797 -51.7988 727.026 -46.9867 727.273 -40.8081C727.273 -40.8081 727.251 -40.7702 727.259 -40.7402L784.242 -32.8184C785.918 -38.8717 791.27 -43.4597 797.891 -43.7282C806.095 -44.0681 813.024 -37.6939 813.365 -29.491C813.546 -24.992 811.675 -20.92 808.643 -18.0742L854.74 46.3724C856.061 45.7463 857.536 45.3352 859.108 45.2827C862.576 45.1382 865.692 46.6092 867.834 48.982L936.014 6.13987C935.224 4.44611 934.738 2.57454 934.652 0.580153C934.311 -7.62279 940.685 -14.5499 948.889 -14.8899C949.616 -14.9246 950.296 -14.8347 950.988 -14.7638L963.859 -69.2585C960.038 -70.9089 957.271 -74.6032 957.087 -79.0532C956.821 -85.2429 961.632 -90.4707 967.812 -90.7168C974.001 -90.9819 979.231 -86.1697 979.478 -79.9911C979.743 -73.8016 974.932 -68.5737 968.742 -68.3087C968.378 -68.2913 968.009 -68.3526 967.649 -68.3841L954.769 -13.9192C960.154 -11.871 964.082 -6.77436 964.351 -0.633728C964.366 -0.39758 964.295 -0.186372 964.31 0.049775L1021.69 7.97613C1023.11 3.64173 1027.05 0.409279 1031.86 0.208602C1038.05 -0.0564928 1043.28 4.75569 1043.52 10.9533C1043.78 17.1428 1038.97 22.3708 1032.79 22.6168C1026.6 22.8818 1021.37 18.0697 1021.11 11.8802C1021.11 11.8802 1021.12 11.8612 1021.13 11.8423L963.745 3.91581C962.069 9.96915 956.698 14.5462 950.096 14.8257C945.282 15.0264 940.942 12.8742 938.081 9.42934L869.87 52.2792C870.34 53.4343 870.676 54.6894 870.714 56.0243C870.964 62.1541 866.263 67.32 860.176 67.6696L853.205 127.213C861.133 129.012 867.23 135.865 867.572 144.372C867.722 148.095 866.757 151.604 864.961 154.583L977.202 246.611C980.932 243.082 985.891 240.793 991.432 240.557C995.617 240.397 999.573 241.419 1003 243.32L1035.19 195.689C1031.88 192.815 1029.68 188.665 1029.48 183.93C1029.18 176.406 1034 169.894 1040.83 167.649L1026.18 95.3223C1026.18 95.3223 1025.92 95.3752 1025.79 95.3773C1017.59 95.7174 1010.66 89.3432 1010.32 81.1404C1009.98 72.9374 1016.35 66.0102 1024.56 65.6701C1032.76 65.3301 1039.69 71.7043 1040.03 79.9073C1040.31 86.6368 1036.04 92.4259 1030 94.5229L1044.64 166.869C1044.85 166.842 1045.06 166.786 1045.27 166.779C1052.11 166.485 1058.16 170.435 1060.9 176.283L1148.52 147.319C1148.42 146.706 1148.27 146.089 1148.26 145.452C1147.94 137.789 1153.9 131.307 1161.57 130.983C1169.23 130.66 1175.71 136.625 1176.04 144.288C1176.19 147.835 1174.94 151.082 1172.87 153.623L1199.71 182.733C1200.84 182.095 1202.14 181.683 1203.51 181.619C1208.22 181.431 1212.21 185.071 1212.39 189.776C1212.44 190.661 1212.3 191.515 1212.07 192.314L1263.31 219.882C1265.28 217.403 1268.21 215.737 1271.62 215.608C1276.29 215.429 1280.4 218.106 1282.26 222.108L1322.54 210.887C1322.45 210.461 1322.36 210.054 1322.36 209.622C1322.15 204.906 1325.83 200.943 1330.53 200.725C1335.23 200.538 1339.21 204.197 1339.39 208.902C1339.58 213.607 1335.92 217.581 1331.22 217.769C1327.91 217.903 1325.01 216.132 1323.46 213.442L1283.03 224.721C1283.12 225.256 1283.24 225.802 1283.27 226.353C1283.48 231.373 1280.36 235.683 1275.88 237.315L1287.34 279.191C1287.53 279.173 1287.71 279.124 1287.9 279.106C1292.6 278.919 1296.59 282.559 1296.8 287.275C1296.99 291.98 1293.33 295.954 1288.62 296.142C1283.92 296.33 1279.94 292.671 1279.75 287.966C1279.61 284.4 1281.67 281.241 1284.74 279.857L1273.24 237.911C1273 237.926 1272.78 238.001 1272.55 238.017C1266.37 238.263 1261.13 233.469 1260.89 227.272C1260.83 225.896 1261.06 224.568 1261.48 223.319L1210.27 195.773C1208.8 197.449 1206.66 198.565 1204.26 198.665C1202.83 198.726 1201.53 198.403 1200.34 197.841L1166.06 248.463C1168.29 250.41 1169.77 253.233 1169.9 256.416C1170.17 262.605 1165.36 267.833 1159.16 268.068C1154.16 268.287 1149.83 265.156 1148.21 260.688L1107.67 270.011C1107.67 270.011 1107.7 270.131 1107.71 270.21C1107.9 274.915 1104.24 278.889 1099.53 279.077C1094.83 279.264 1090.85 275.606 1090.65 270.919C1090.44 266.203 1094.1 262.229 1098.83 262.052C1102.51 261.882 1105.74 264.124 1107.06 267.358L1147.63 258.027C1147.58 257.799 1147.54 257.571 1147.52 257.335C1147.26 251.145 1152.08 245.947 1158.25 245.671C1160.26 245.596 1162.12 246.09 1163.81 246.936L1198.09 196.315C1196.54 194.84 1195.5 192.779 1195.4 190.47C1195.33 188.535 1195.91 186.747 1196.93 185.27L1170.07 156.247C1167.97 157.689 1165.49 158.628 1162.76 158.719C1157.11 158.967 1152.11 155.757 1149.75 151.009L1062.12 179.992C1062.29 180.826 1062.45 181.697 1062.49 182.582C1062.87 191.688 1055.8 199.377 1046.69 199.751C1043.73 199.887 1040.96 199.142 1038.5 197.878L1006.27 245.535C1010.99 249.376 1014.12 255.12 1014.38 261.662C1014.83 272.527 1007.33 281.837 997.075 284.072L1006.47 387.157C1014.06 387.574 1020.43 392.543 1022.86 399.499L1080.1 386.182C1080.08 385.916 1080.01 385.647 1079.99 385.381C1079.65 377.178 1086.02 370.251 1094.22 369.911C1096.03 369.843 1097.76 370.133 1099.37 370.661L1111.36 343.336C1109.78 342.173 1108.7 340.334 1108.6 338.231C1108.44 334.527 1111.33 331.399 1115.03 331.239C1118.74 331.08 1121.87 333.972 1122.03 337.676C1122.19 341.38 1119.3 344.509 1115.59 344.668C1115.05 344.685 1114.52 344.633 1114.03 344.525L1102.04 371.821C1106.39 374.258 1109.46 378.784 1109.68 384.137C1109.73 385.405 1109.59 386.611 1109.33 387.801L1176.55 411.458C1178.25 408.522 1181.36 406.504 1184.98 406.35C1189.31 406.169 1193.08 408.679 1194.78 412.387L1248.65 396.662C1248.65 396.662 1248.63 396.554 1248.64 396.505C1248.48 392.801 1251.37 389.672 1255.07 389.512C1258.78 389.353 1261.92 392.227 1262.07 395.95C1262.23 399.654 1259.33 402.782 1255.63 402.942C1253 403.038 1250.68 401.625 1249.48 399.466L1195.54 415.226C1195.6 415.563 1195.69 415.891 1195.69 416.244C1195.93 421.912 1191.51 426.713 1185.83 426.94C1180.14 427.166 1175.35 422.763 1175.1 417.084C1175.07 416.435 1175.12 415.782 1175.21 415.131L1107.99 391.474C1105.62 396.113 1100.97 399.391 1095.41 399.616C1088.84 399.887 1083.15 395.822 1080.93 389.995L1023.69 403.312C1023.76 403.806 1023.88 404.284 1023.91 404.805C1024.06 408.449 1023.11 411.871 1021.41 414.826L1106.28 482.338C1110.12 478.57 1115.25 476.155 1121.05 475.915C1133.42 475.404 1143.86 485.017 1144.4 497.377L1235.96 502.938C1235.96 502.938 1235.98 502.743 1235.99 502.626C1237.75 494.197 1246.02 488.794 1254.45 490.555C1257.32 491.149 1259.77 492.541 1261.77 494.376L1342.19 426.448C1340.48 423.591 1339.75 420.118 1340.49 416.605C1342.05 409.192 1349.32 404.426 1356.72 405.998C1364.14 407.551 1368.9 414.824 1367.35 422.237C1367.29 422.557 1367.15 422.852 1367.06 423.18L1447.42 458.769C1450.5 454.455 1455.92 452.106 1461.42 453.259C1468.83 454.812 1473.6 462.086 1472.05 469.499C1470.49 476.912 1463.2 481.667 1455.81 480.125C1448.39 478.573 1443.64 471.28 1445.18 463.886C1445.3 463.325 1445.5 462.808 1445.69 462.291L1365.49 426.77C1362.51 431.461 1356.89 434.102 1351.12 432.893C1348.61 432.35 1346.42 431.141 1344.67 429.498L1264.35 497.353C1266.51 500.697 1267.43 504.838 1266.55 509.029C1266.02 511.555 1264.86 513.739 1263.35 515.618L1303.75 557.86C1305.91 556.48 1308.6 555.887 1311.3 556.461C1316.78 557.604 1320.31 563 1319.15 568.466C1318.01 573.944 1312.63 577.482 1307.14 576.31C1301.65 575.156 1298.14 569.771 1299.28 564.294C1299.58 562.901 1300.15 561.612 1300.93 560.522L1260.53 518.309C1257.09 520.866 1252.61 522.047 1248.09 521.099C1241.08 519.63 1236.22 513.644 1235.78 506.846L1144.22 501.316C1143.71 505.361 1142.08 509.095 1139.67 512.174L1164.65 536.292C1166.86 534.739 1169.67 534.066 1172.52 534.648C1178 535.791 1181.52 541.186 1180.38 546.664C1179.24 552.142 1173.86 555.68 1168.37 554.526C1162.87 553.373 1159.36 547.988 1160.5 542.51C1160.75 541.242 1161.28 540.107 1161.92 539.087L1137.01 515.033C1134.12 517.632 1130.55 519.485 1126.57 520.295L1138.46 662.677C1148.39 663.059 1156.77 669.942 1159.27 679.313C1166.45 678.029 1173.48 676.786 1179.14 675.735C1179.15 675.667 1179.13 675.626 1179.12 675.547C1178.81 668.297 1184.47 662.169 1191.73 661.841C1199 661.543 1205.14 667.184 1205.44 674.454C1205.74 681.723 1200.1 687.862 1192.83 688.16C1186.99 688.396 1181.91 684.76 1179.98 679.528C1174.2 680.612 1167.1 681.89 1159.92 683.174C1159.94 683.488 1159.99 683.795 1160.01 684.11C1160.22 689.13 1158.73 693.803 1156.12 697.674L1238.92 765.404C1242.17 762.179 1246.53 760.05 1251.47 759.847C1260.56 759.462 1268.4 765.559 1270.62 774.011L1375 757.676C1374.56 747.194 1382.71 738.335 1393.2 737.878C1396.67 737.733 1399.91 738.595 1402.76 740.089L1438.74 685.699C1436.2 683.4 1434.53 680.164 1434.39 676.471C1434.08 669.22 1439.73 663.063 1446.98 662.754C1454.25 662.456 1460.39 668.097 1460.69 675.366C1461 682.617 1455.35 688.774 1448.08 689.072C1445.91 689.157 1443.84 688.671 1442 687.786L1405.99 742.203C1410.03 745.523 1412.72 750.408 1412.97 756.058C1412.99 756.676 1412.91 757.259 1412.87 757.845L1523.77 773.534C1525.33 768.297 1530.02 764.365 1535.79 764.133C1540.49 763.946 1544.69 766.265 1547.18 769.874L1634.58 727.52C1634.2 726.341 1633.91 725.089 1633.85 723.792C1633.51 716.021 1639.56 709.436 1647.34 709.13C1655.13 708.804 1661.69 714.862 1662.01 722.623C1662.04 723.605 1661.98 724.551 1661.85 725.465L1787.49 758.6C1788.93 755.139 1792.22 752.672 1796.18 752.508C1800.27 752.342 1803.87 754.675 1805.55 758.117L1898.72 728.419C1898.68 728.142 1898.61 727.873 1898.6 727.588C1898.41 723.01 1901.96 719.147 1906.53 718.962C1911.11 718.776 1914.96 722.31 1915.16 726.898C1915.36 731.457 1911.8 735.339 1907.23 735.525C1903.9 735.678 1900.97 733.806 1899.53 731.006L1806.33 760.742C1806.39 761.157 1806.49 761.564 1806.5 761.977C1806.73 767.439 1802.48 772.054 1797.01 772.284C1791.55 772.514 1786.94 768.258 1786.71 762.796C1786.69 762.256 1786.74 761.73 1786.79 761.204L1661.16 728.069C1659.23 733.245 1654.38 737.011 1648.52 737.236C1643.44 737.46 1638.89 734.914 1636.26 730.992L1548.86 773.346C1549.2 774.425 1549.44 775.527 1549.49 776.716C1549.65 780.468 1548.2 783.899 1545.77 786.39L1598.51 842.925C1599.73 842.117 1601.17 841.605 1602.74 841.553C1607.3 841.356 1611.16 844.901 1611.37 849.489C1611.56 854.048 1607.99 857.92 1603.43 858.116C1598.85 858.302 1594.98 854.727 1594.8 850.18C1594.71 848.155 1595.4 846.305 1596.53 844.816L1543.69 788.165C1541.72 789.478 1539.42 790.349 1536.9 790.433C1529.63 790.731 1523.49 785.09 1523.19 777.82C1523.18 777.663 1523.21 777.527 1523.22 777.381L1412.29 761.7C1410.2 769.512 1403.31 775.458 1394.78 775.837C1385.62 776.208 1377.73 770.06 1375.57 761.513L1271.23 777.85C1271.23 777.85 1271.27 777.97 1271.27 778.049C1271.59 785.633 1267.37 792.337 1261.04 795.631L1293.4 876.921C1294.19 876.743 1295 876.605 1295.83 876.557C1303.1 876.259 1309.24 881.9 1309.54 889.17C1309.67 892.146 1308.77 894.885 1307.21 897.143L1356.44 939.103C1358.07 937.642 1360.19 936.672 1362.57 936.58C1368.03 936.35 1372.63 940.595 1372.88 946.019L1420.97 950.368C1421.96 946.146 1425.61 942.896 1430.18 942.73C1435.64 942.499 1440.25 946.755 1440.49 952.217C1440.56 954.358 1439.93 956.369 1438.85 958.068L1484.05 997.648C1485.39 996.553 1487.07 995.831 1488.94 995.777C1493.52 995.591 1497.38 999.136 1497.57 1003.71C1497.76 1008.29 1494.21 1012.15 1489.64 1012.34C1485.06 1012.53 1481.2 1008.96 1481.01 1004.4C1480.94 1002.68 1481.39 1001.07 1482.23 999.705L1437.02 960.143C1435.4 961.554 1433.31 962.467 1430.98 962.563C1425.51 962.793 1420.93 958.578 1420.66 953.123L1372.59 948.755C1371.59 952.978 1367.94 956.247 1363.39 956.424C1357.93 956.654 1353.31 952.398 1353.06 946.925C1352.98 944.833 1353.57 942.85 1354.62 941.208L1305.4 899.279C1303.16 901.398 1300.24 902.79 1296.9 902.932C1294.95 903.021 1293.1 902.636 1291.4 901.955L1274.65 933.375C1276.73 934.931 1278.15 937.338 1278.25 940.127C1278.46 945.069 1274.63 949.248 1269.7 949.432C1264.76 949.635 1260.61 945.799 1260.39 940.877C1260.18 935.954 1264.02 931.756 1268.95 931.572C1270.12 931.515 1271.23 931.729 1272.26 932.094L1289.01 900.675C1285.66 898.416 1283.38 894.673 1283.2 890.35C1283 885.311 1285.67 880.866 1289.75 878.475L1257.38 797.175C1255.98 797.581 1254.53 797.856 1253.01 797.912C1242.53 798.35 1233.66 790.204 1233.23 779.721C1233.04 775.575 1234.26 771.709 1236.38 768.485L1153.58 700.755C1149.73 704.717 1144.43 707.29 1138.47 707.51C1135.57 707.63 1132.77 707.178 1130.16 706.276L1100.86 771.513C1104.34 773.751 1106.73 777.579 1106.91 782.029C1107.21 789.298 1101.57 795.437 1094.3 795.735C1087.03 796.033 1080.9 790.373 1080.6 783.104C1080.3 775.834 1085.93 769.714 1093.2 769.416C1094.63 769.355 1095.96 769.573 1097.27 769.945L1126.58 704.689C1120.02 701.002 1115.42 694.131 1115.08 686.056C1114.62 674.955 1122.36 665.405 1132.93 663.198L1121.05 520.796C1109.49 520.356 1100 511.113 1099.52 499.345C1099.33 494.718 1100.55 490.372 1102.8 486.695L1017.91 419.173C1014.8 422.073 1010.71 424.002 1006.11 424.177C1004.73 424.241 1003.39 424.121 1002.09 423.876L983.228 479.863C990.457 483.355 995.581 490.581 995.958 499.159C996.365 509.041 990.301 517.663 981.545 521.017L997.679 577.51C998.192 577.452 998.682 577.305 999.222 577.289C1007.43 576.949 1014.35 583.323 1014.71 591.537C1015.06 599.74 1008.67 606.686 1000.48 607.007C998.277 607.1 996.146 606.678 994.234 605.877L973.551 641.921C976.035 643.962 977.688 646.961 977.825 650.399C978.031 655.292 975.156 659.617 970.955 661.51L993.66 735.586C994.154 735.517 994.632 735.389 995.153 735.362C1001.59 735.112 1007.04 740.104 1007.3 746.518C1007.57 752.963 1002.56 758.404 996.129 758.655C989.702 758.935 984.26 753.924 983.979 747.498C983.783 742.587 986.637 738.3 990.848 736.387L968.162 662.323C967.657 662.41 967.19 662.519 966.68 662.527C961.975 662.715 957.848 660.106 955.82 656.182L917.209 670.207C917.315 670.723 917.403 671.228 917.43 671.749C917.65 677.23 913.406 681.826 907.932 682.075C902.45 682.294 897.854 678.049 897.623 672.587C897.403 667.106 901.658 662.491 907.11 662.28C911.02 662.113 914.459 664.25 916.206 667.481L954.817 653.456C954.652 652.78 954.546 652.088 954.511 651.36C954.241 644.916 959.252 639.474 965.697 639.205C967.279 639.133 968.811 639.412 970.211 639.917L990.914 603.884C987.531 601.3 985.231 597.32 985.045 592.743C984.777 586.426 988.519 580.908 993.993 578.513L977.867 522.051C976.786 522.26 975.689 522.41 974.549 522.459C966.218 522.801 958.77 518.551 954.618 511.961L915.794 531.824C916.29 533.197 916.645 534.639 916.7 536.161C917.042 544.364 910.668 551.291 902.464 551.631C894.261 551.971 887.332 545.597 886.991 537.394C886.65 529.191 893.024 522.264 901.227 521.924C906.513 521.693 911.229 524.289 914.043 528.338L952.826 508.502C951.878 506.162 951.284 503.647 951.179 500.986C950.667 488.617 960.271 478.151 972.659 477.651C974.526 477.567 976.338 477.754 978.1 478.115L996.985 422.041C991.244 419.079 987.18 413.299 986.88 406.382C986.843 405.527 986.941 404.7 987.032 403.843L966.387 400.182C965.122 403.948 961.632 406.756 957.417 406.924C951.955 407.155 947.339 402.899 947.089 397.425C946.858 391.963 951.113 387.349 956.576 387.118C962.039 386.888 966.654 391.144 966.885 396.606C966.901 396.842 966.848 397.065 966.844 397.29L987.509 400.962C989.203 394.439 994.289 389.218 1000.95 387.609L991.584 284.614C981.804 284.272 973.553 277.563 971.067 268.349L901.278 280.638C901.288 280.796 901.347 280.956 901.346 281.132C901.774 291.33 893.871 299.9 883.692 300.337C880.017 300.488 876.557 299.526 873.612 297.8L838.04 345.982C840.679 348.542 842.427 352.077 842.592 356.036C842.933 364.239 836.548 371.185 828.356 371.506C820.152 371.846 813.224 365.472 812.882 357.269C812.541 349.066 818.915 342.138 827.118 341.798C829.938 341.684 832.58 342.401 834.894 343.687L870.467 295.504C866.983 292.306 864.708 287.76 864.494 282.661C864.358 279.704 865.006 276.92 866.126 274.411L825.105 253.454C823.327 255.964 820.46 257.693 817.149 257.827C811.48 258.064 806.678 253.65 806.421 247.971C806.193 242.283 810.607 237.482 816.276 237.245C821.945 237.007 826.766 241.432 826.994 247.12C827.042 248.436 826.831 249.678 826.438 250.84L867.497 271.818C870.646 267.019 875.959 263.722 882.131 263.446C890.806 263.076 898.283 268.807 900.579 276.775L970.368 264.486C970.347 264.171 970.297 263.864 970.288 263.53C970.086 258.893 971.366 254.531 973.672 250.887L861.374 158.826C858.296 161.62 854.305 163.458 849.836 163.63C842.064 163.967 835.233 159.392 832.253 152.696L706.427 187.537C706.53 188.278 706.611 189.057 706.654 189.815C706.985 197.684 703.112 204.742 697.082 208.887L707.645 226.729C708.696 226.351 709.791 226.074 710.96 226.017C717.14 225.771 722.38 230.564 722.627 236.743C722.644 237.106 722.585 237.426 722.565 237.768L745.393 244.735C746.437 242.534 748.62 240.941 751.233 240.833C754.986 240.676 758.153 243.591 758.291 247.333C758.449 251.086 755.534 254.252 751.792 254.39C748.039 254.546 744.891 251.643 744.734 247.89C744.74 247.792 744.745 247.695 744.751 247.597L722.059 240.658C720.653 244.973 716.697 248.195 711.913 248.387C711.077 248.435 710.268 248.347 709.463 248.211L697.966 289.432C701.817 291.074 704.603 294.779 704.776 299.248C705.042 305.438 700.23 310.666 694.051 310.912C687.861 311.177 682.632 306.365 682.385 300.186C682.12 293.997 686.931 288.769 693.11 288.523C693.808 288.496 694.48 288.556 695.161 288.646L706.705 247.3C703.055 245.572 700.458 241.976 700.265 237.673C700.101 233.714 702.03 230.155 705.078 228.025L694.604 210.335C691.884 211.72 688.844 212.566 685.612 212.696C681.496 212.87 677.596 211.881 674.218 210.031L566.767 360.266C569.691 362.99 571.89 366.532 572.974 370.517L598.188 365.956C597.978 358.839 603.531 352.852 610.673 352.556C617.865 352.263 623.94 357.841 624.234 365.032C624.528 372.223 618.95 378.297 611.748 378.609C605.843 378.861 600.748 375.086 598.921 369.763L573.646 374.34C573.682 374.714 573.729 375.07 573.736 375.452C573.884 378.871 573.207 382.143 571.933 385.094L658.7 428.8C661.833 423.941 667.198 420.599 673.407 420.345C682.81 419.939 690.774 426.709 692.288 435.767L746.208 430.883C746.417 425.751 750.492 421.537 755.719 421.322C761.212 421.083 765.865 425.361 766.093 430.872C766.321 436.384 762.044 441.036 756.543 441.244C751.699 441.453 747.516 438.154 746.427 433.61L692.575 438.508C692.732 447.817 685.934 455.61 676.877 456.948L679.101 510.233C684.655 510.939 689.055 515.525 689.306 521.302C689.406 523.885 688.633 526.318 687.278 528.314L721.634 558.453C724.282 555.967 727.732 554.322 731.651 554.185C740.248 553.82 747.531 560.499 747.886 569.115C747.93 570.176 747.869 571.201 747.702 572.19L797.923 583.381C799.183 579.537 802.695 576.69 806.959 576.525C812.47 576.298 817.123 580.575 817.333 586.075C817.572 591.568 813.295 596.22 807.783 596.448C802.291 596.686 797.637 592.408 797.409 586.897C797.373 586.346 797.435 585.801 797.505 585.286L747.227 574.063C745.547 579.861 740.608 584.258 734.413 585.101L736.513 635.233C742.285 635.737 746.963 640.408 747.206 646.332C747.364 649.908 745.828 653.138 743.39 655.392L775.916 715.211C776.525 715.032 777.161 714.894 777.839 714.856C782.004 714.685 785.515 717.924 785.678 722.06C785.861 726.206 782.623 729.716 778.457 729.887C774.291 730.058 770.781 726.819 770.618 722.684C770.509 720.247 771.601 718.049 773.344 716.605L740.994 657.09C739.496 657.892 737.809 658.408 736.021 658.487C729.576 658.756 724.133 653.745 723.863 647.301C723.604 641.317 727.946 636.247 733.734 635.321L731.545 585.213C723.592 584.814 717.072 578.474 716.744 570.379C716.6 566.735 717.762 563.365 719.75 560.624L685.375 530.473C683.431 532.179 680.951 533.323 678.15 533.449C671.705 533.718 666.263 528.707 665.993 522.263C665.76 516.497 669.781 511.544 675.251 510.384L673.015 457.118C663.73 456.53 656.161 449.079 655.771 439.56C655.66 436.995 656.092 434.542 656.943 432.281L570.108 388.562C567.254 392.849 562.964 396.079 557.848 397.546L574.883 478.248C575.258 478.211 575.597 478.104 575.98 478.098C586.159 477.661 594.769 485.586 595.188 495.754C595.608 505.921 587.702 514.54 577.514 514.947C574.744 515.065 572.131 514.516 569.72 513.528L538.442 571.16C541.982 573.735 544.385 577.799 544.592 582.515C544.862 588.959 540.99 594.528 535.353 596.855L553.004 654.526C553.33 654.486 553.629 654.407 553.974 654.378C559.073 654.165 563.353 658.127 563.578 663.206C563.594 663.923 563.542 664.625 563.414 665.284L620.137 684.9C621.609 682.088 624.483 680.085 627.903 679.938C633.002 679.725 637.293 683.667 637.507 688.766C637.614 691.556 636.463 694.073 634.554 695.85L660.953 734.125C661.687 733.816 662.464 733.608 663.319 733.571C667.072 733.415 670.239 736.329 670.377 740.071C670.535 743.824 667.612 746.96 663.878 747.128C660.125 747.285 656.958 744.37 656.82 740.628C656.739 738.712 657.482 736.944 658.705 735.656L632.324 697.392C631.223 697.943 629.979 698.26 628.652 698.327C623.572 698.551 619.273 694.579 619.048 689.499C619.032 688.783 619.092 688.11 619.212 687.422L562.489 667.806C561.017 670.618 558.143 672.62 554.724 672.768C553.917 672.808 553.169 672.704 552.434 672.532L531.356 728.729C534.068 730.244 535.977 733.063 536.111 736.374C536.268 740.127 534.141 743.419 531.008 744.994L544.553 786.809C544.711 786.798 544.86 786.758 545.018 786.748C548.771 786.592 551.938 789.506 552.076 793.248C552.233 797.001 549.33 800.148 545.577 800.305C541.824 800.461 538.676 797.558 538.519 793.805C538.411 791.192 539.823 788.876 541.964 787.662L528.41 745.818C528.044 745.884 527.666 745.97 527.284 745.976C523.816 746.12 520.739 744.319 519.063 741.533L473.359 760.757C473.417 761.093 473.475 761.43 473.512 761.804C473.669 765.557 470.755 768.724 467.013 768.861C463.26 769.018 460.111 766.114 459.954 762.362C459.797 758.609 462.711 755.442 466.464 755.286C468.89 755.196 471.034 756.384 472.334 758.245L517.978 739.037C517.829 738.421 517.728 737.807 517.691 737.129C517.466 732.049 521.438 727.751 526.537 727.538C527.332 727.517 528.091 727.602 528.837 727.754L549.915 671.558C547.222 670.053 545.314 667.234 545.16 663.912C545.006 660.111 547.177 656.743 550.416 655.203L532.78 597.592C532.006 597.751 531.213 597.899 530.388 597.928C522.185 598.268 515.256 591.894 514.915 583.691C514.574 575.488 520.958 568.542 529.162 568.202C531.254 568.122 533.252 568.467 535.091 569.175L566.367 511.592C561.755 508.424 558.635 503.239 558.369 497.226C558.004 488.757 563.449 481.47 571.136 478.963L554.204 398.169C553.721 398.219 553.227 398.287 552.736 398.307C547.539 398.514 542.676 396.918 538.8 394.049L505.264 432.143C507.067 434.27 508.219 436.955 508.344 439.932C508.638 447.123 503.06 453.197 495.869 453.49C488.678 453.783 482.603 448.204 482.309 441.014C482.015 433.823 487.593 427.749 494.784 427.456C497.585 427.331 500.183 428.123 502.372 429.539L535.887 391.483C533.148 388.614 531.208 385.019 530.333 380.978L366.157 393.122C365.77 401.056 361.133 407.951 354.424 411.477L369.848 448.112C370.274 448.03 370.7 447.948 371.143 447.926C376.242 447.713 380.522 451.674 380.747 456.754C380.813 458.434 380.404 460.016 379.674 461.413L413.984 487.081C415.545 485.557 417.633 484.566 419.98 484.482C425.061 484.258 429.371 488.211 429.584 493.31C429.605 493.624 429.536 493.963 429.526 494.286L457.123 499.031C457.975 496.417 460.366 494.464 463.283 494.355C467.036 494.198 470.204 497.113 470.342 500.854C470.499 504.607 467.577 507.744 463.842 507.911C460.089 508.068 456.941 505.164 456.773 501.43C456.763 501.273 456.802 501.119 456.811 500.972L429.214 496.227C428.346 499.262 425.996 501.669 422.915 502.542L428.494 548.924C431.816 549.251 434.477 551.949 434.614 555.387C434.679 557.243 433.999 558.946 432.853 560.23L466.713 601.422C467.66 600.832 468.73 600.466 469.919 600.419C473.672 600.263 476.82 603.166 476.977 606.919C477.134 610.672 474.212 613.808 470.478 613.976C466.744 614.144 463.577 611.229 463.42 607.476C463.336 605.609 464.016 603.906 465.191 602.614L431.331 561.422C430.385 562.012 429.314 562.379 428.125 562.425C424.372 562.581 421.206 559.667 421.068 555.925C420.937 552.87 422.858 550.241 425.592 549.269L420.006 502.857C415.264 502.67 411.354 498.897 411.164 494.065C411.098 492.385 411.506 490.802 412.237 489.406L377.938 463.719C376.377 465.242 374.288 466.233 371.93 466.337C370.791 466.386 369.695 466.183 368.676 465.847L353.079 496.013C354.517 497.197 355.462 498.93 355.548 500.924C355.705 504.677 352.802 507.824 349.049 507.981C345.296 508.137 342.129 505.223 341.972 501.47C341.814 497.718 344.729 494.551 348.471 494.413C349.168 494.387 349.838 494.495 350.475 494.661L366.083 464.476C363.906 462.866 362.438 460.377 362.318 457.479C362.181 454.217 363.767 451.294 366.263 449.553L350.887 412.92C349.059 413.506 347.136 413.861 345.112 413.955C341.123 414.127 337.336 413.204 334.02 411.466L256.162 524.007C260.44 527.841 263.238 533.32 263.505 539.51C263.821 547.143 260.223 554.031 254.474 558.213L290.097 617.395C291.546 616.767 293.107 616.381 294.768 616.304C302.244 615.999 308.59 621.809 308.885 629.304C308.91 629.873 308.829 630.407 308.786 630.963L371.227 645.269C372.651 642.278 375.594 640.113 379.16 639.974C384.24 639.75 388.55 643.704 388.753 648.821C388.977 653.901 385.005 658.199 379.925 658.423C374.826 658.636 370.516 654.683 370.321 649.595C370.322 649.419 370.361 649.264 370.35 649.107L307.958 634.804C306.078 639.679 301.425 643.231 295.884 643.466C293.889 643.552 291.992 643.164 290.25 642.462L269.487 678.03C271.244 679.625 272.381 681.898 272.474 684.451C272.698 689.531 268.726 693.83 263.627 694.043C258.547 694.267 254.248 690.294 254.023 685.214C253.809 680.116 257.771 675.836 262.851 675.612C263.99 675.563 265.067 675.755 266.085 676.091L286.87 640.485C283.896 638.111 281.904 634.561 281.726 630.494C281.531 626.063 283.524 622.086 286.71 619.456L251.087 560.273C248.441 561.575 245.494 562.348 242.36 562.483C231.72 562.931 222.537 555.736 220.065 545.798L114.05 558.487C113.907 563.329 111.929 567.718 108.697 570.953L142.229 612.538C145.422 610.77 149.411 610.598 152.879 612.423C158.36 615.31 160.471 622.11 157.585 627.591C155.309 631.884 150.678 634.085 146.12 633.448L133.813 671.828C138.553 674.993 140.294 681.252 137.586 686.381C137.121 687.274 136.507 688.031 135.877 688.728L169.001 738.588C169.628 738.42 170.272 738.312 170.94 738.293C176.02 738.069 180.33 742.022 180.544 747.121C180.757 752.22 176.797 756.499 171.716 756.723C166.636 756.947 162.307 752.983 162.112 747.895C161.979 744.889 163.347 742.168 165.512 740.387L132.762 691.148C129.608 692.761 125.779 692.874 122.395 691.122C116.895 688.225 114.784 681.424 117.671 675.943C120.095 671.307 125.322 669.122 130.212 670.279L142.387 632.303C136.905 629.416 134.794 622.616 137.68 617.135C138.091 616.336 138.612 615.652 139.171 614.99L105.631 573.376C102.97 575.097 99.845 576.223 96.4555 576.362C90.1381 576.629 84.4452 573.671 80.925 568.961L54.3096 584.785C54.5745 585.595 54.78 586.421 54.8249 587.305C55.0307 592.374 51.0776 596.684 45.9974 596.907C40.8984 597.121 36.5989 593.148 36.3933 588.079C36.1797 582.981 40.1519 578.682 45.2209 578.477C48.0215 578.351 50.5478 579.532 52.3356 581.423L78.94 565.618C77.9698 563.492 77.375 561.154 77.2582 558.687C77.1011 554.934 78.0852 551.436 79.8619 548.446L0.425886 483.162C-3.30391 486.691 -8.25202 488.961 -13.7935 489.197C-25.9453 489.682 -36.2088 480.246 -36.7253 468.103C-36.7702 467.218 -36.7286 466.359 -36.6569 465.491L-167.279 438.768C-169.223 444.061 -173.558 448.2 -179.002 449.931L-164.295 516.333C-160.532 515.853 -156.587 516.414 -152.979 518.345C-146.024 522.007 -142.291 529.365 -142.86 536.739L-102.545 543.65C-102.356 543.103 -102.166 542.555 -101.89 542.033C-99.0034 536.552 -92.2218 534.432 -86.7214 537.33C-81.2398 540.217 -79.11 547.027 -81.9963 552.508C-84.8939 558.008 -91.6831 560.099 -97.1756 557.231C-101.09 555.173 -103.248 551.123 -103.138 546.995L-143.453 540.084C-143.809 541.445 -144.293 542.807 -144.987 544.098C-146.06 546.131 -147.494 547.828 -149.091 549.281L-98.4732 616.135C-92.9149 612.677 -85.755 612.088 -79.5507 615.342C-73.0241 618.781 -69.4177 625.485 -69.4587 632.381L-18.3505 637.441C-18.1244 636.612 -17.8493 635.786 -17.4281 634.969C-14.5306 629.469 -7.76015 627.367 -2.25975 630.265C3.22183 633.152 5.33311 639.952 2.46555 645.444C-0.431815 650.944 -7.22125 653.035 -12.7138 650.166C-16.3519 648.243 -18.4578 644.628 -18.6502 640.804L-69.7693 635.763C-70.1028 637.566 -70.6426 639.376 -71.5482 641.075C-74.369 646.442 -79.3731 649.816 -84.9126 650.836L-75.8147 745.417C-73.3567 745.447 -70.8791 745.968 -68.5512 747.186C-60.7604 751.28 -57.7722 760.935 -61.8652 768.725C-65.9692 776.533 -75.6251 779.52 -83.4049 775.407C-91.1955 771.313 -94.1838 761.658 -90.0906 753.868C-87.7788 749.47 -83.6804 746.659 -79.167 745.754L-88.2649 651.173C-91.3037 651.187 -94.3832 650.57 -97.2527 649.065C-106.554 644.175 -110.137 632.661 -105.228 623.372C-104.156 621.34 -102.751 619.651 -101.125 618.19L-151.742 551.336C-157.282 554.805 -164.45 555.364 -170.654 552.11C-172.611 551.081 -174.263 549.698 -175.7 548.162L-223.757 585.373C-220.744 590.218 -220.237 596.471 -223.091 601.896C-226.122 607.671 -232.106 610.859 -238.231 610.707L-247.22 681.359C-246.41 681.574 -245.614 681.857 -244.845 682.275C-239.049 685.318 -236.816 692.518 -239.877 698.302C-242.919 704.097 -250.119 706.329 -255.885 703.278C-261.681 700.235 -263.915 693.036 -260.872 687.241C-258.782 683.27 -254.756 681.023 -250.578 680.961L-241.586 610.26C-242.938 609.934 -244.285 609.51 -245.568 608.845C-253.699 604.554 -256.83 594.488 -252.551 586.377C-248.261 578.246 -238.195 575.118 -230.082 579.397C-228.439 580.27 -227.057 581.421 -225.82 582.691L-177.734 545.472C-181.291 539.908 -181.924 532.648 -178.627 526.369C-176.194 521.762 -172.14 518.547 -167.516 517.1L-182.205 450.709C-182.718 450.766 -183.226 450.902 -183.747 450.93C-189.731 451.187 -195.096 448.494 -198.651 444.194L-265.782 482.767C-265.363 483.792 -265.015 484.852 -264.749 485.965L-264.489 486.696C-264.228 487.907 -264.057 489.143 -263.987 490.421C-263.489 502.553 -272.936 512.833 -285.069 513.329C-287.997 513.457 -290.83 512.983 -293.431 512.062L-304.959 540.561C-302.443 542.241 -300.738 545.019 -300.589 548.262C-300.396 553.046 -303.681 557.16 -308.2 558.162L-305.132 601.63C-300.263 601.991 -296.333 605.902 -296.113 610.903C-295.887 616.287 -300.069 620.818 -305.453 621.043C-310.837 621.268 -315.369 617.086 -315.606 611.721C-315.81 606.956 -312.536 602.861 -308.055 601.837L-311.112 558.35C-314.614 558.071 -317.586 556.001 -319.082 552.991L-344.681 560.36C-344.681 560.36 -344.667 560.469 -344.659 560.499C-344.513 564.271 -347.438 567.456 -351.192 567.613C-354.964 567.758 -358.131 564.844 -358.307 561.08C-358.453 557.308 -355.539 554.142 -351.775 553.966C-349.083 553.854 -346.731 555.337 -345.512 557.557L-319.932 550.176C-319.998 549.81 -320.075 549.462 -320.093 549.098C-320.319 543.715 -316.137 539.184 -310.753 538.959C-309.996 538.916 -309.285 538.998 -308.578 539.129L-296.97 510.448C-300.645 508.326 -303.67 505.165 -305.607 501.345C-305.676 501.203 -305.787 501.089 -305.846 500.929L-305.897 500.798C-306.427 499.659 -306.856 498.477 -307.203 497.241L-382.869 508.334C-382.944 518.09 -390.623 526.183 -400.476 526.581C-401.204 526.616 -401.873 526.507 -402.595 526.444L-408.243 562.783C-400.304 564.564 -394.218 571.436 -393.846 579.935C-393.693 583.433 -394.594 586.7 -396.167 589.555L-397.686 591.836C-400.897 596.042 -405.821 598.882 -411.52 599.128C-415.273 599.285 -418.82 598.297 -421.788 596.482L-455.241 645.762C-453.515 647.365 -452.385 649.608 -452.274 652.173C-452.115 656.053 -454.376 659.445 -457.72 660.949L-446.247 701.541C-446.09 701.531 -445.959 701.48 -445.813 701.489C-441.539 701.305 -437.907 704.639 -437.741 708.902C-437.567 713.195 -440.909 716.796 -445.184 716.98C-449.447 717.145 -453.09 713.83 -453.263 709.537C-453.396 706.354 -451.59 703.533 -448.896 702.235L-460.368 661.642C-460.615 661.676 -460.873 661.73 -461.139 661.753C-465.511 661.931 -469.278 659.049 -470.389 655.024L-509.196 659.894C-509.403 663.841 -512.556 667.071 -516.583 667.221C-520.876 667.394 -524.489 664.071 -524.674 659.797C-524.848 655.504 -521.506 651.903 -517.232 651.719C-513.636 651.572 -510.531 653.895 -509.523 657.18L-470.716 652.309C-470.595 647.505 -466.79 643.54 -461.916 643.323C-460.364 643.259 -458.887 643.632 -457.563 644.27L-424.033 594.858C-427.926 591.626 -430.524 586.893 -430.766 581.45C-431.174 571.264 -423.29 562.683 -413.111 562.246C-412.383 562.211 -411.695 562.331 -410.992 562.383L-405.344 526.044C-413.272 524.244 -419.38 517.41 -419.741 508.892C-419.766 508.322 -419.663 507.75 -419.647 507.153L-550.366 480.425C-552.307 486.149 -556.527 490.834 -562.011 493.376L-549.948 524.939C-549.003 524.702 -548.023 524.536 -547.029 524.478C-539.455 524.178 -533.075 530.059 -532.764 537.613C-532.452 545.168 -538.325 551.577 -545.91 551.895C-553.464 552.205 -559.882 546.303 -560.194 538.748C-560.411 533.218 -557.326 528.357 -552.695 525.979L-564.756 494.367C-566.513 494.918 -568.376 495.257 -570.292 495.338C-575.215 495.552 -579.832 494.098 -583.605 491.491L-656.323 580.077C-653.219 583.233 -651.178 587.442 -650.993 592.196C-650.554 602.375 -658.479 610.982 -668.667 611.389C-669.581 611.442 -670.465 611.31 -671.371 611.217L-688.518 690.923C-683.485 692.793 -679.799 697.523 -679.572 703.21C-679.379 707.994 -681.655 712.286 -685.25 714.883L-655.416 766.328C-654.321 765.875 -653.155 765.563 -651.918 765.52C-646.23 765.293 -641.428 769.707 -641.182 775.405C-640.954 781.093 -645.379 785.913 -651.067 786.139C-656.755 786.366 -661.557 781.952 -661.803 776.254C-661.948 772.786 -660.35 769.668 -657.791 767.685L-687.617 716.269C-689.169 716.989 -690.892 717.435 -692.699 717.503C-697.592 717.708 -701.993 715.268 -704.57 711.507L-753.576 738.245C-753.177 739.259 -752.899 740.353 -752.85 741.493C-752.612 747.161 -757.036 751.981 -762.724 752.208C-768.412 752.435 -773.233 748.009 -773.471 742.341C-773.718 736.643 -769.274 731.833 -763.586 731.607C-760.02 731.468 -756.799 733.152 -754.833 735.827L-705.856 709.098C-706.474 707.63 -706.898 706.046 -706.964 704.367C-707.284 696.783 -701.403 690.404 -693.837 690.074C-693.316 690.047 -692.831 690.125 -692.324 690.165L-675.155 610.421C-682.248 608.094 -687.513 601.594 -687.845 593.725C-688.253 583.539 -680.358 574.939 -670.171 574.532C-666.152 574.352 -662.41 575.527 -659.299 577.576L-586.603 489.027C-589.343 486.334 -591.393 482.928 -592.426 479.074L-641.329 487.738C-641.087 495.151 -646.872 501.408 -654.299 501.716C-658.593 501.889 -662.44 500.022 -665.053 497.023L-685.378 511.402C-684.8 512.544 -684.426 513.821 -684.399 515.175C-684.175 520.255 -688.147 524.553 -693.227 524.777C-698.326 524.99 -702.625 521.018 -702.831 515.949C-703.044 510.85 -699.102 506.56 -694.003 506.347C-691.233 506.229 -688.771 507.347 -686.991 509.208L-666.655 494.81C-667.684 493.004 -668.364 490.945 -668.465 488.714C-668.517 487.447 -668.316 486.224 -668.05 485.064L-719.997 464.569C-721.578 466.914 -724.185 468.541 -727.259 468.66C-732.358 468.873 -736.639 464.911 -736.863 459.831C-737.088 454.752 -733.105 450.434 -728.036 450.229C-722.956 450.005 -718.657 453.978 -718.432 459.057C-718.402 459.706 -718.44 460.341 -718.535 460.942L-666.637 481.435C-664.384 477.533 -660.292 474.82 -655.448 474.611C-649.258 474.346 -643.919 478.312 -642.061 483.931L-593.098 475.251C-593.138 474.925 -593.177 474.599 -593.175 474.247C-593.377 469.609 -592.086 465.228 -589.78 461.584L-669.273 396.268C-672.351 399.062 -676.331 400.881 -680.811 401.072C-689.566 401.447 -697.116 395.624 -699.324 387.505L-805.309 400.186C-805.363 411.873 -814.579 421.58 -826.378 422.066C-830.386 422.227 -834.172 421.304 -837.469 419.577L-915.338 532.137C-911.06 535.971 -908.262 541.45 -907.985 547.621C-907.93 549.143 -908.017 550.607 -908.252 552.063L-883.554 557.761C-882.075 553.842 -878.356 550.988 -873.905 550.805C-867.951 550.555 -862.928 555.198 -862.677 561.152C-862.426 567.105 -867.061 572.158 -873.023 572.377C-878.977 572.627 -884.019 567.973 -884.27 562.02C-884.289 561.529 -884.233 561.081 -884.185 560.604L-908.969 554.882C-910.131 558.732 -912.328 562.186 -915.281 564.851L-885.718 603.992C-883.923 602.982 -881.885 602.341 -879.695 602.266C-872.111 601.948 -865.731 607.829 -865.4 615.394C-865.324 617.231 -865.636 618.996 -866.223 620.626L-834.839 635.918C-833.264 633.67 -830.671 632.111 -827.705 632.005C-822.636 631.8 -818.326 635.754 -818.101 640.833C-817.876 645.913 -821.848 650.211 -826.947 650.424C-832.028 650.648 -836.327 646.676 -836.551 641.596C-836.596 640.535 -836.418 639.527 -836.134 638.554L-867.518 623.263C-869.857 626.964 -873.889 629.485 -878.576 629.683C-879.401 629.712 -880.201 629.654 -880.998 629.548L-891.759 672.861C-888.124 674.353 -885.488 677.794 -885.317 681.96C-885.193 685.289 -886.647 688.288 -889.029 690.272L-864.967 732.551C-863.861 732.079 -862.646 731.769 -861.349 731.71C-855.661 731.484 -850.859 735.898 -850.621 741.566C-850.394 747.254 -854.818 752.073 -860.506 752.3C-862.737 752.401 -864.834 751.746 -866.549 750.604L-908.292 800.856C-907.339 801.962 -906.738 803.369 -906.666 804.951C-906.509 808.704 -909.412 811.852 -913.165 812.008C-916.9 812.176 -920.067 809.262 -920.224 805.509C-920.381 801.756 -917.467 798.59 -913.725 798.452C-912.379 798.396 -911.146 798.754 -910.074 799.347L-868.33 749.096C-870.018 747.338 -871.115 745.038 -871.223 742.425C-871.373 738.879 -869.691 735.658 -867.004 733.673L-890.97 691.576C-892.253 692.224 -893.65 692.63 -895.172 692.686C-900.841 692.923 -905.662 688.498 -905.908 682.8C-906.136 677.112 -901.703 672.322 -896.023 672.066C-895.532 672.046 -895.054 672.094 -894.569 672.172L-883.828 628.848C-888.891 626.986 -892.595 622.246 -892.83 616.529C-893.014 612.559 -891.435 608.95 -888.808 606.324L-918.37 567.183C-921.497 569.141 -925.165 570.332 -929.105 570.507C-933.222 570.681 -937.122 569.692 -940.5 567.843L-950.191 583.184C-947.638 585.062 -945.911 587.979 -945.771 591.368C-945.521 597.321 -950.134 602.336 -956.076 602.567C-962.011 602.827 -967.027 598.214 -967.278 592.261C-967.52 586.337 -962.907 581.323 -956.972 581.062C-955.488 580.985 -954.043 581.238 -952.74 581.738L-942.973 566.264C-947.33 563.091 -950.475 558.346 -951.593 552.801L-1115.69 564.94C-1115.9 571.258 -1118.8 576.934 -1123.29 580.809L-1079.49 643.55C-1077.05 642.207 -1074.35 641.341 -1071.39 641.205C-1061.22 640.787 -1052.62 648.682 -1052.19 658.88C-1052.08 661.395 -1052.49 663.811 -1053.32 666.034L-1025.46 679.82C-1023.2 676.604 -1019.56 674.413 -1015.36 674.234C-1008.17 673.941 -1002.1 679.519 -1001.78 686.721C-1001.53 692.449 -1005.06 697.43 -1010.16 699.388L-1000.34 735.941C-1000.05 735.91 -999.768 735.819 -999.464 735.817C-993.776 735.591 -988.963 739.986 -988.736 745.673C-988.49 751.372 -992.922 756.162 -998.621 756.407C-1004.29 756.645 -1009.11 752.22 -1009.34 746.532C-1009.53 742.101 -1006.87 738.234 -1002.98 736.615L-1012.78 700.073C-1013.27 700.141 -1013.75 700.269 -1014.26 700.278C-1021.46 700.59 -1027.52 694.993 -1027.84 687.791C-1027.89 686.22 -1027.63 684.726 -1027.19 683.293L-1055.04 669.507C-1058.18 674.414 -1063.57 677.795 -1069.84 678.065C-1072.37 678.167 -1074.82 677.766 -1077.06 676.925L-1106.14 735.121C-1100.97 738.204 -1097.37 743.741 -1097.11 750.205C-1096.79 758.044 -1101.42 764.89 -1108.21 767.843L-1079.27 841.852C-1078.53 841.652 -1077.78 841.53 -1076.97 841.491C-1070.78 841.226 -1065.55 846.038 -1065.3 852.216C-1065.04 858.406 -1069.85 863.634 -1076.03 863.88C-1077.91 863.953 -1079.68 863.513 -1081.27 862.771L-1116.58 918.456C-1115.37 919.636 -1114.57 921.232 -1114.48 923.05C-1114.33 926.803 -1117.24 929.969 -1120.99 930.126C-1124.75 930.283 -1127.91 927.368 -1128.07 923.615C-1128.21 919.873 -1125.31 916.726 -1121.57 916.558C-1120.64 916.517 -1119.73 916.689 -1118.89 916.994L-1083.62 861.317C-1086 859.361 -1087.61 856.462 -1087.74 853.151C-1087.92 848.731 -1085.51 844.819 -1081.85 842.863L-1110.83 768.754C-1112.11 769.098 -1113.44 769.342 -1114.84 769.395C-1124.4 769.78 -1132.48 762.818 -1133.78 753.509L-1166.36 755.687C-1166.7 760.87 -1170.85 765.089 -1176.17 765.298C-1181.86 765.525 -1186.66 761.111 -1186.91 755.412C-1187.14 749.725 -1182.71 744.935 -1177.04 744.697C-1171.89 744.487 -1167.52 748.072 -1166.55 752.951L-1134 750.782C-1133.92 741.026 -1126.25 732.903 -1116.39 732.486C-1114.06 732.391 -1111.86 732.778 -1109.76 733.482L-1080.59 675.116C-1085.48 671.99 -1088.84 666.614 -1089.1 660.376C-1089.35 654.55 -1086.8 649.304 -1082.71 645.757L-1126.48 583.057C-1129.52 584.864 -1133.02 585.947 -1136.8 586.112C-1140.94 586.275 -1144.88 585.264 -1148.28 583.404L-1255.71 733.62C-1251.57 737.426 -1248.9 742.809 -1248.64 748.89C-1248.13 761.033 -1257.58 771.284 -1269.74 771.788C-1279.21 772.179 -1287.51 766.506 -1290.97 758.243L-1416.87 793.12C-1416.8 793.614 -1416.68 794.062 -1416.67 794.572C-1416.25 804.739 -1424.18 813.347 -1434.33 813.776C-1434.66 813.785 -1434.95 813.719 -1435.28 813.728L-1442.26 873.32C-1437.82 874.645 -1434.47 878.648 -1434.27 883.541C-1434.13 886.754 -1435.39 889.686 -1437.49 891.833L-1391.37 956.291C-1389.47 955.269 -1387.32 954.614 -1385.02 954.527C-1376.82 954.187 -1369.89 960.561 -1369.55 968.764C-1369.54 969 -1369.59 969.222 -1369.6 969.466L-1312.6 977.399C-1311.18 973.065 -1307.26 969.851 -1302.42 969.661C-1296.24 969.415 -1291.02 974.198 -1290.77 980.406C-1290.52 986.585 -1295.31 991.823 -1301.49 992.069C-1307.68 992.334 -1312.91 987.522 -1313.16 981.344C-1313.16 981.344 -1313.15 981.325 -1313.16 981.295L-1370.13 973.354C-1371.82 979.426 -1377.19 984.003 -1383.79 984.283C-1391.99 984.623 -1398.94 978.238 -1399.26 970.046C-1399.44 965.547 -1397.57 961.475 -1394.51 958.621L-1440.61 894.174C-1441.95 894.789 -1443.41 895.182 -1444.99 895.253C-1448.43 895.39 -1451.55 893.918 -1453.74 891.543L-1521.91 934.366C-1521.12 936.06 -1520.63 937.931 -1520.56 939.945C-1520.22 948.147 -1526.59 955.075 -1534.78 955.426C-1535.49 955.441 -1536.17 955.351 -1536.89 955.288L-1549.78 1009.8C-1545.96 1011.45 -1543.19 1015.15 -1543 1019.6C-1542.74 1025.79 -1547.54 1031 -1553.73 1031.26C-1559.91 1031.51 -1565.15 1026.71 -1565.38 1020.52C-1565.63 1014.34 -1560.85 1009.12 -1554.64 1008.86C-1554.28 1008.85 -1553.93 1008.9 -1553.55 1008.91L-1540.67 954.444C-1546.06 952.396 -1549.99 947.299 -1550.24 941.17C-1550.25 940.933 -1550.2 940.711 -1550.2 940.486L-1607.6 932.549C-1609.02 936.883 -1612.94 940.126 -1617.77 940.316C-1623.96 940.581 -1629.17 935.78 -1629.45 929.58C-1629.69 923.382 -1624.91 918.162 -1618.72 917.897C-1612.53 917.632 -1607.3 922.444 -1607.03 928.634C-1607.03 928.634 -1607.04 928.653 -1607.05 928.672L-1549.67 936.598C-1547.99 930.545 -1542.62 925.968 -1536.01 925.669C-1531.2 925.469 -1526.86 927.621 -1523.98 931.047L-1455.8 888.205C-1456.26 887.03 -1456.61 885.795 -1456.66 884.479C-1456.92 878.368 -1452.22 873.202 -1446.1 872.844L-1439.12 813.282C-1447.05 811.483 -1453.14 804.629 -1453.49 796.122C-1453.64 792.4 -1452.67 788.891 -1450.87 785.912L-1563.13 693.873C-1566.86 697.402 -1571.82 699.691 -1577.37 699.927C-1581.56 700.106 -1585.52 699.084 -1588.93 697.164L-1621.13 744.794C-1617.81 747.669 -1615.61 751.819 -1615.39 756.565C-1615.07 764.1 -1619.91 770.6 -1626.74 772.846L-1612.07 845.184C-1612.07 845.184 -1611.82 845.131 -1611.69 845.129C-1603.49 844.789 -1596.56 851.163 -1596.22 859.366C-1595.87 867.569 -1602.25 874.496 -1610.45 874.836C-1618.66 875.176 -1625.59 868.82 -1625.93 860.599C-1626.19 853.88 -1621.95 848.069 -1615.9 845.983L-1630.55 773.626C-1630.76 773.633 -1630.98 773.708 -1631.19 773.734C-1638.03 774.029 -1644.09 770.079 -1646.82 764.231L-1734.45 793.195C-1734.33 793.819 -1734.2 794.425 -1734.17 795.073C-1733.86 802.755 -1739.81 809.218 -1747.47 809.541C-1755.14 809.865 -1761.62 803.899 -1761.93 796.218C-1762.08 792.701 -1760.84 789.424 -1758.77 786.883L-1785.61 757.773C-1786.73 758.411 -1788.02 758.853 -1789.42 758.906C-1794.13 759.094 -1798.11 755.454 -1798.3 750.749C-1798.33 749.845 -1798.21 749.01 -1797.98 748.181L-1849.23 720.613C-1851.19 723.092 -1854.14 724.747 -1857.53 724.887C-1862.19 725.077 -1866.32 722.389 -1868.17 718.387L-1908.45 729.607C-1908.39 730.023 -1908.3 730.449 -1908.28 730.891C-1908.09 735.597 -1911.74 739.552 -1916.46 739.759C-1921.16 739.946 -1925.15 736.306 -1925.34 731.601C-1925.53 726.896 -1921.89 722.911 -1917.18 722.723C-1913.89 722.578 -1910.96 724.371 -1909.44 727.039L-1869.01 715.76C-1869.12 715.214 -1869.23 714.698 -1869.23 714.139C-1869.45 709.138 -1866.29 704.801 -1861.84 703.177L-1873.32 661.32C-1873.51 661.338 -1873.69 661.386 -1873.87 661.404C-1878.59 661.611 -1882.56 657.952 -1882.74 653.228C-1882.93 648.523 -1879.27 644.549 -1874.57 644.361C-1869.88 644.162 -1865.89 647.832 -1865.7 652.537C-1865.54 656.114 -1867.63 659.252 -1870.68 660.646L-1859.18 702.592C-1858.93 702.558 -1858.73 702.502 -1858.49 702.486C-1852.31 702.24 -1847.07 707.033 -1846.82 713.242C-1846.75 714.618 -1846.97 715.957 -1847.39 717.206L-1796.18 744.752C-1794.7 743.076 -1792.57 741.96 -1790.16 741.86C-1788.75 741.817 -1787.43 742.122 -1786.24 742.683L-1751.95 692.043C-1754.19 690.096 -1755.68 687.292 -1755.82 684.079C-1756.08 677.889 -1751.27 672.662 -1745.06 672.408C-1740.07 672.208 -1735.73 675.32 -1734.1 679.798L-1693.55 670.475C-1693.55 670.475 -1693.58 670.337 -1693.59 670.277C-1693.78 665.572 -1690.12 661.598 -1685.42 661.41C-1680.71 661.222 -1676.72 664.862 -1676.55 669.586C-1676.34 674.303 -1679.99 678.258 -1684.72 678.454C-1688.43 678.613 -1691.63 676.382 -1692.95 673.148L-1733.51 682.46C-1733.48 682.707 -1733.42 682.916 -1733.41 683.152C-1733.16 689.331 -1737.97 694.559 -1744.15 694.805C-1746.16 694.88 -1748.04 694.404 -1749.69 693.551L-1783.97 744.172C-1782.4 745.658 -1781.39 747.708 -1781.28 750.017C-1781.21 751.952 -1781.79 753.74 -1782.82 755.216L-1755.97 784.229C-1753.88 782.786 -1751.37 781.859 -1748.65 781.739C-1742.98 781.501 -1738.01 784.7 -1735.63 789.459L-1648 760.495C-1648.16 759.642 -1648.33 758.79 -1648.37 757.905C-1648.76 748.818 -1641.68 741.109 -1632.58 740.736C-1629.6 740.611 -1626.84 741.345 -1624.39 742.609L-1592.16 694.971C-1596.89 691.13 -1600 685.367 -1600.29 678.814C-1600.74 667.968 -1593.24 658.639 -1582.98 656.404L-1592.34 553.311C-1599.93 552.894 -1606.31 547.925 -1608.73 540.969L-1665.98 554.286C-1665.94 554.563 -1665.86 554.832 -1665.84 555.098C-1665.5 563.3 -1671.87 570.228 -1680.08 570.568C-1681.88 570.636 -1683.61 570.346 -1685.23 569.817L-1697.21 597.143C-1695.64 598.306 -1694.55 600.145 -1694.45 602.248C-1694.3 605.971 -1697.18 609.08 -1700.89 609.24C-1704.59 609.4 -1707.72 606.507 -1707.88 602.803C-1708.02 599.11 -1705.15 595.97 -1701.45 595.811C-1700.91 595.794 -1700.38 595.845 -1699.87 595.935L-1687.88 568.639C-1692.24 566.221 -1695.3 561.676 -1695.52 556.323C-1695.57 555.055 -1695.43 553.849 -1695.17 552.659L-1762.39 529.001C-1764.09 531.937 -1767.2 533.956 -1770.84 534.099C-1775.15 534.291 -1778.95 531.77 -1780.63 528.073L-1834.5 543.817C-1834.5 543.817 -1834.51 543.914 -1834.48 543.955C-1834.33 547.678 -1837.19 550.799 -1840.92 550.947C-1844.62 551.107 -1847.76 548.233 -1847.92 544.529C-1848.08 540.826 -1845.19 537.697 -1841.48 537.537C-1838.87 537.43 -1836.54 538.854 -1835.33 541.013L-1781.41 525.272C-1781.47 524.935 -1781.54 524.618 -1781.55 524.254C-1781.78 518.566 -1777.38 513.784 -1771.68 513.539C-1766.01 513.301 -1761.21 517.716 -1760.97 523.384C-1760.95 524.052 -1761 524.705 -1761.11 525.326L-1693.88 548.983C-1691.52 544.363 -1686.86 541.066 -1681.3 540.841C-1674.73 540.57 -1669.03 544.646 -1666.84 550.481L-1609.59 537.164C-1609.63 536.662 -1609.76 536.184 -1609.8 535.682C-1609.94 532.038 -1609 528.616 -1607.29 525.661L-1692.15 458.13C-1695.99 461.897 -1701.14 464.332 -1706.92 464.553C-1719.29 465.064 -1729.73 455.451 -1730.25 443.101L-1821.83 437.56C-1821.83 437.56 -1821.83 437.785 -1821.86 437.872C-1823.62 446.301 -1831.89 451.703 -1840.32 449.942C-1843.17 449.33 -1845.64 447.957 -1847.64 446.122L-1928.05 514.05C-1926.34 516.906 -1925.62 520.38 -1926.36 523.892C-1927.91 531.305 -1935.2 536.061 -1942.6 534.519C-1950.01 532.966 -1954.78 525.693 -1953.23 518.28C-1953.16 517.941 -1953.01 517.646 -1952.93 517.318L-2033.27 481.74C-2036.34 486.054 -2041.76 488.403 -2047.27 487.268C-2054.69 485.715 -2059.45 478.442 -2057.9 471.029C-2056.35 463.616 -2049.08 458.85 -2041.66 460.402C-2034.25 461.955 -2029.48 469.229 -2031.04 476.661C-2031.16 477.203 -2031.38 477.728 -2031.56 478.256L-1951.36 513.776C-1948.37 509.086 -1942.75 506.474 -1937 507.672C-1934.47 508.196 -1932.3 509.424 -1930.54 511.049L-1850.21 443.194C-1852.38 439.85 -1853.29 435.709 -1852.4 431.499C-1851.88 428.973 -1850.72 426.789 -1849.21 424.91L-1889.62 382.687C-1891.78 384.066 -1894.44 384.651 -1897.17 384.085C-1902.63 382.954 -1906.16 377.558 -1905.02 372.08C-1903.87 366.602 -1898.48 363.075 -1893 364.218C-1887.5 365.371 -1883.98 370.737 -1885.14 376.234C-1885.42 377.638 -1885.99 378.897 -1886.78 380.006L-1846.39 422.218C-1842.91 419.654 -1838.47 418.48 -1833.94 419.428C-1826.94 420.898 -1822.08 426.883 -1821.64 433.681L-1730.08 439.212C-1729.54 435.177 -1727.94 431.433 -1725.53 428.353L-1750.5 404.236C-1752.71 405.789 -1755.53 406.462 -1758.37 405.88C-1763.85 404.737 -1767.36 399.352 -1766.23 393.844C-1765.09 388.367 -1759.69 384.84 -1754.21 385.982C-1748.73 387.125 -1745.22 392.51 -1746.35 397.999C-1746.6 399.267 -1747.1 400.393 -1747.77 401.421L-1722.84 425.487C-1719.98 422.896 -1716.39 421.053 -1712.41 420.244L-1724.3 277.861C-1734.23 277.48 -1742.61 270.597 -1745.09 261.207C-1752.26 262.471 -1759.31 263.734 -1764.97 264.785C-1764.96 264.864 -1764.97 264.912 -1764.95 264.972C-1764.64 272.223 -1770.28 278.361 -1777.55 278.659C-1784.82 278.957 -1790.96 273.316 -1791.27 266.066C-1791.57 258.796 -1785.93 252.658 -1778.66 252.36C-1772.81 252.123 -1767.76 255.749 -1765.82 260.961C-1760.04 259.878 -1752.93 258.599 -1745.76 257.335C-1745.8 257.009 -1745.84 256.684 -1745.84 256.38C-1746.05 251.36 -1744.58 246.675 -1741.96 242.835L-1824.78 175.094C-1828.04 178.338 -1832.39 180.448 -1837.35 180.64C-1846.44 181.024 -1854.27 174.939 -1856.49 166.486L-1960.87 182.821C-1960.43 193.304 -1968.56 202.174 -1979.09 202.609C-1982.56 202.753 -1985.77 201.884 -1988.65 200.398L-2024.62 254.788C-2022.08 257.087 -2020.43 260.342 -2020.27 264.016C-2019.96 271.266 -2025.62 277.424 -2032.89 277.722C-2040.16 278.02 -2046.27 272.371 -2046.59 265.11C-2046.89 257.84 -2041.25 251.702 -2033.98 251.404C-2031.81 251.318 -2029.77 251.813 -2027.92 252.679L-1991.9 198.243C-1995.95 194.942 -1998.63 190.038 -1998.89 184.407C-1998.91 183.789 -1998.83 183.206 -1998.79 182.62L-2109.69 166.931C-2111.25 172.168 -2115.93 176.111 -2121.69 176.343C-2126.4 176.53 -2130.59 174.211 -2133.08 170.602L-2220.48 212.956C-2220.1 214.135 -2219.8 215.368 -2219.77 216.673C-2219.43 224.444 -2225.48 231.028 -2233.24 231.346C-2241.03 231.672 -2247.6 225.633 -2247.93 217.842C-2247.95 216.871 -2247.9 215.913 -2247.75 214.992L-2373.38 181.857C-2374.83 185.288 -2378.11 187.785 -2382.1 187.957C-2386.19 188.123 -2389.79 185.79 -2391.46 182.329L-2484.64 212.027C-2484.59 212.304 -2484.54 212.562 -2484.53 212.847C-2484.34 217.424 -2487.89 221.288 -2492.46 221.473C-2497.04 221.659 -2500.91 218.115 -2501.09 213.537C-2501.28 208.959 -2497.72 205.107 -2493.16 204.91L-2493.32 204.969Z" fill="#DCE7F9"/>
</svg>
