<svg width="82" height="82" viewBox="0 0 82 82" fill="none" xmlns="http://www.w3.org/2000/svg">
<path d="M65.9063 38.1411C65.9132 36.3951 65.4587 34.6782 64.5887 33.1644C63.7186 31.6505 62.464 30.3935 60.9519 29.5205C60.9892 29.0919 60.9892 28.6609 60.9519 28.2323C60.9519 26.2613 60.1689 24.3711 58.7752 22.9774C57.3815 21.5837 55.4913 20.8007 53.5203 20.8007H53.0744C52.6619 19.657 51.9751 18.632 51.0742 17.8156C50.1733 16.9991 49.0858 16.4162 47.9072 16.1178C46.7285 15.8195 45.4947 15.8149 44.3138 16.1044C43.133 16.394 42.0412 16.9688 41.1343 17.7785C40.2273 16.9688 39.1356 16.394 37.9547 16.1044C36.7739 15.8149 35.5401 15.8195 34.3614 16.1178C33.1828 16.4162 32.0953 16.9991 31.1944 17.8156C30.2935 18.632 29.6067 19.657 29.1942 20.8007H28.7483C26.7773 20.8007 24.887 21.5837 23.4933 22.9774C22.0996 24.3711 21.3167 26.2613 21.3167 28.2323C21.2794 28.6609 21.2794 29.0919 21.3167 29.5205C19.9108 30.3151 18.7204 31.4414 17.8492 32.8012C16.978 34.161 16.4523 35.7132 16.318 37.3225C16.1837 38.9319 16.4448 40.5497 17.0785 42.0351C17.7123 43.5205 18.6995 44.8285 19.9542 45.8452C19.1424 47.3595 18.7382 49.0588 18.7814 50.7764C18.8245 52.4939 19.3136 54.1708 20.2005 55.6423C21.0874 57.1138 22.3417 58.3295 23.8403 59.1699C25.3388 60.0103 27.0302 60.4466 28.7483 60.436H29.1942C29.6067 61.5797 30.2935 62.6047 31.1944 63.4211C32.0953 64.2376 33.1828 64.8205 34.3614 65.1189C35.5401 65.4172 36.7739 65.4218 37.9547 65.1322C39.1356 64.8427 40.2273 64.2679 41.1343 63.4581C42.0412 64.2679 43.133 64.8427 44.3138 65.1322C45.4947 65.4218 46.7285 65.4172 47.9072 65.1189C49.0858 64.8205 50.1733 64.2376 51.0742 63.4211C51.9751 62.6047 52.6619 61.5797 53.0744 60.436H53.5203C55.2279 60.4252 56.9037 59.9733 58.3853 59.1241C59.8668 58.2749 61.1037 57.0572 61.976 55.5892C62.8484 54.1212 63.3265 52.4526 63.3641 50.7454C63.4017 49.0382 62.9974 47.3502 62.1905 45.8452C63.346 44.9201 64.2795 43.748 64.9225 42.4148C65.5655 41.0816 65.9017 39.6213 65.9063 38.1411ZM38.6571 32.072C38.1175 31.7634 37.5543 31.4983 36.9726 31.2793C36.3484 31.069 35.6663 31.1154 35.0763 31.408C34.4863 31.7007 34.0368 32.2158 33.8265 32.8399C33.6163 33.4641 33.6626 34.1462 33.9553 34.7362C34.248 35.3262 34.763 35.7757 35.3872 35.986C36.3408 36.3307 37.1656 36.9597 37.7503 37.7881C38.3351 38.6165 38.6516 39.6044 38.6571 40.6183V44.458C38.1175 44.1494 37.5543 43.8843 36.9726 43.6653C36.3484 43.4551 35.6663 43.5014 35.0763 43.794C34.4863 44.0867 34.0368 44.6018 33.8265 45.2259C33.6163 45.8501 33.6626 46.5322 33.9553 47.1222C34.248 47.7122 34.763 48.1617 35.3872 48.372C36.3408 48.7167 37.1656 49.3457 37.7503 50.1741C38.3351 51.0025 38.6516 51.9904 38.6571 53.0044V57.9588C38.6571 58.6158 38.3961 59.2458 37.9315 59.7104C37.467 60.175 36.8369 60.436 36.1799 60.436C35.7006 60.4328 35.2326 60.2907 34.8324 60.0269C34.4323 59.7631 34.1173 59.3889 33.9256 58.9496C34.341 58.7059 34.7384 58.4327 35.1147 58.1322C35.3652 57.924 35.5722 57.6685 35.7239 57.3803C35.8757 57.092 35.9692 56.7768 35.9991 56.4524C36.029 56.1281 35.9947 55.801 35.8982 55.4899C35.8017 55.1788 35.6449 54.8898 35.4367 54.6393C35.2285 54.3888 34.973 54.1818 34.6848 54.03C34.3966 53.8783 34.0813 53.7848 33.757 53.7549C33.4326 53.725 33.1056 53.7593 32.7945 53.8558C32.4834 53.9522 32.1944 54.1091 31.9439 54.3173C31.0494 55.0703 29.9175 55.4827 28.7483 55.4816C27.4343 55.4816 26.1741 54.9596 25.245 54.0304C24.3158 53.1013 23.7939 51.8411 23.7939 50.5271C23.8057 49.5947 24.0805 48.6845 24.5866 47.9013C25.1425 48.001 25.7063 48.0508 26.2711 48.0499C26.9281 48.0499 27.5582 47.789 28.0227 47.3244C28.4873 46.8598 28.7483 46.2297 28.7483 45.5727C28.7483 44.9157 28.4873 44.2857 28.0227 43.8211C27.5582 43.3565 26.9281 43.0955 26.2711 43.0955C25.6859 43.0989 25.1056 42.9896 24.5618 42.7735C23.6709 42.4522 22.8907 41.8822 22.3137 41.1311C21.7367 40.3801 21.3871 39.4793 21.3063 38.5357C21.2255 37.592 21.4169 36.645 21.8578 35.8067C22.2986 34.9685 22.9705 34.2742 23.7939 33.806C24.1459 34.1299 24.5274 34.4202 24.9334 34.6731C25.505 35.0015 26.1836 35.0895 26.8201 34.9176C27.4565 34.7458 27.9987 34.3281 28.3271 33.7565C28.6556 33.1849 28.7436 32.5062 28.5717 31.8698C28.3998 31.2333 27.9822 30.6912 27.4106 30.3627C27.0619 30.1703 26.771 29.8881 26.5683 29.5452C26.3393 29.1475 26.2357 28.6899 26.2711 28.2323C26.2711 27.5753 26.5321 26.9452 26.9966 26.4807C27.4612 26.0161 28.0913 25.7551 28.7483 25.7551C28.9208 25.731 29.0959 25.731 29.2685 25.7551C29.3996 26.1531 29.5569 26.5421 29.7392 26.9194C29.901 27.2033 30.1174 27.4523 30.3759 27.6522C30.6344 27.852 30.9298 27.9988 31.2453 28.084C31.5607 28.1692 31.8899 28.1911 32.2139 28.1486C32.5378 28.106 32.8502 27.9998 33.1329 27.836C33.6821 27.5055 34.0819 26.9751 34.2482 26.3561C34.4145 25.7371 34.3344 25.0777 34.0247 24.5165C33.8169 24.1365 33.7062 23.711 33.7027 23.2779C33.7027 22.6209 33.9637 21.9908 34.4282 21.5263C34.8928 21.0617 35.5229 20.8007 36.1799 20.8007C36.8369 20.8007 37.467 21.0617 37.9315 21.5263C38.3961 21.9908 38.6571 22.6209 38.6571 23.2779V32.072ZM57.7068 42.7735C57.163 42.9896 56.5826 43.0989 55.9975 43.0955C55.3405 43.0955 54.7104 43.3565 54.2459 43.8211C53.7813 44.2857 53.5203 44.9157 53.5203 45.5727C53.5203 46.2297 53.7813 46.8598 54.2459 47.3244C54.7104 47.789 55.3405 48.0499 55.9975 48.0499C56.5623 48.0508 57.1261 48.001 57.682 47.9013C58.1881 48.6845 58.4629 49.5947 58.4747 50.5271C58.4747 51.8411 57.9527 53.1013 57.0236 54.0304C56.0945 54.9596 54.8343 55.4816 53.5203 55.4816C52.3511 55.4827 51.2192 55.0703 50.3247 54.3173C49.8188 53.8968 49.1666 53.6945 48.5116 53.7549C47.8565 53.8153 47.2523 54.1334 46.8319 54.6393C46.4114 55.1452 46.2091 55.7974 46.2695 56.4524C46.3299 57.1075 46.648 57.7117 47.1539 58.1322C47.5302 58.4327 47.9276 58.7059 48.3429 58.9496C48.1513 59.3889 47.8362 59.7631 47.4361 60.0269C47.036 60.2907 46.5679 60.4328 46.0887 60.436C45.4317 60.436 44.8016 60.175 44.337 59.7104C43.8725 59.2458 43.6115 58.6158 43.6115 57.9588V53.0044C43.617 51.9904 43.9335 51.0025 44.5182 50.1741C45.103 49.3457 45.9278 48.7167 46.8814 48.372C47.5055 48.1617 48.0206 47.7122 48.3133 47.1222C48.606 46.5322 48.6523 45.8501 48.442 45.2259C48.2318 44.6018 47.7822 44.0867 47.1922 43.794C46.6022 43.5014 45.9201 43.4551 45.296 43.6653C44.7143 43.8843 44.151 44.1494 43.6115 44.458V40.6183C43.617 39.6044 43.9335 38.6165 44.5182 37.7881C45.103 36.9597 45.9278 36.3307 46.8814 35.986C47.5055 35.7757 48.0206 35.3262 48.3133 34.7362C48.606 34.1462 48.6523 33.4641 48.442 32.8399C48.2318 32.2158 47.7822 31.7007 47.1922 31.408C46.6022 31.1154 45.9201 31.069 45.296 31.2793C44.7143 31.4983 44.151 31.7634 43.6115 32.072V23.2779C43.6115 22.6209 43.8725 21.9908 44.337 21.5263C44.8016 21.0617 45.4317 20.8007 46.0887 20.8007C46.7457 20.8007 47.3758 21.0617 47.8403 21.5263C48.3049 21.9908 48.5659 22.6209 48.5659 23.2779C48.5623 23.711 48.4517 24.1365 48.2439 24.5165C48.079 24.7978 47.9714 25.1088 47.927 25.4317C47.8826 25.7547 47.9024 26.0832 47.9853 26.3985C48.0681 26.7138 48.2124 27.0096 48.4098 27.2691C48.6072 27.5285 48.8539 27.7464 49.1357 27.9103C49.4184 28.0741 49.7307 28.1803 50.0547 28.2229C50.3787 28.2654 50.7078 28.2435 51.0233 28.1583C51.3387 28.0731 51.6342 27.9264 51.8927 27.7265C52.1512 27.5266 52.3676 27.2776 52.5294 26.9937C52.7148 26.5923 52.8721 26.1784 53.0001 25.7551C53.1727 25.731 53.3477 25.731 53.5203 25.7551C54.1773 25.7551 54.8074 26.0161 55.2719 26.4807C55.7365 26.9452 55.9975 27.5753 55.9975 28.2323C55.9937 28.7179 55.8473 29.1917 55.5764 29.5948C55.3738 29.9162 55.0924 30.1806 54.7589 30.3627C54.1873 30.6912 53.7696 31.2333 53.5977 31.8698C53.4259 32.5062 53.5138 33.1849 53.8423 33.7565C54.1708 34.3281 54.7129 34.7458 55.3494 34.9176C55.9859 35.0895 56.6645 35.0015 57.2361 34.6731C57.6809 34.4325 58.0965 34.1416 58.4747 33.806C59.3008 34.2659 59.9782 34.9525 60.4267 35.7849C60.8751 36.6173 61.0761 37.5606 61.0058 38.5035C60.9354 39.4464 60.5968 40.3495 60.0298 41.1061C59.4628 41.8627 58.6911 42.4413 57.8059 42.7735H57.7068Z" fill="#53BDCA"/>
</svg>
