<svg width="82" height="82" viewBox="0 0 82 82" fill="none" xmlns="http://www.w3.org/2000/svg">
<path d="M64.1727 36.1348L61.6955 34.7724L39.4006 22.3864H39.1281C38.9763 22.3222 38.8187 22.2724 38.6575 22.2377H38.1868H37.7409C37.5717 22.2724 37.4059 22.3222 37.2455 22.3864H36.973L14.6781 34.7724C14.2969 34.9884 13.9798 35.3018 13.7592 35.6804C13.5386 36.059 13.4223 36.4893 13.4223 36.9275C13.4223 37.3657 13.5386 37.7961 13.7592 38.1747C13.9798 38.5533 14.2969 38.8667 14.6781 39.0827L20.8464 42.5013V54.2432C20.8464 56.2142 21.6294 58.1044 23.023 59.4981C24.4167 60.8918 26.307 61.6748 28.278 61.6748H48.0956C50.0666 61.6748 51.9569 60.8918 53.3506 59.4981C54.7443 58.1044 55.5272 56.2142 55.5272 54.2432V42.5013L60.4816 39.7268V46.8116C60.4816 47.4686 60.7426 48.0987 61.2072 48.5632C61.6717 49.0278 62.3018 49.2888 62.9588 49.2888C63.6158 49.2888 64.2459 49.0278 64.7105 48.5632C65.175 48.0987 65.436 47.4686 65.436 46.8116V38.29C65.4353 37.8511 65.3179 37.4202 65.0959 37.0415C64.8739 36.6628 64.5553 36.3499 64.1727 36.1348ZM50.5728 54.2432C50.5728 54.9002 50.3118 55.5303 49.8473 55.9948C49.3827 56.4594 48.7526 56.7204 48.0956 56.7204H28.278C27.621 56.7204 26.9909 56.4594 26.5263 55.9948C26.0618 55.5303 25.8008 54.9002 25.8008 54.2432V45.2509L36.973 51.444L37.3446 51.5926H37.5675C37.7731 51.6185 37.9812 51.6185 38.1868 51.5926C38.3924 51.6185 38.6005 51.6185 38.8061 51.5926H39.0291C39.1606 51.5649 39.2863 51.5146 39.4006 51.444L50.5728 45.2509V54.2432ZM38.1868 46.4648L20.995 36.9028L38.1868 27.3408L55.3786 36.9028L38.1868 46.4648Z" fill="#FDA801"/>
</svg>
