<svg width="82" height="82" viewBox="0 0 82 82" fill="none" xmlns="http://www.w3.org/2000/svg">
<path d="M41.2807 33.322C39.1912 32.2077 36.7706 31.8823 34.461 32.4053C32.1515 32.9282 30.1071 34.2646 28.7014 36.1702C27.2958 38.0759 26.6226 40.4237 26.8048 42.7847C26.9871 45.1457 28.0126 47.3623 29.6942 49.0297L38.8823 58.2178C39.1964 58.5345 39.57 58.7858 39.9816 58.9573C40.3932 59.1288 40.8348 59.2171 41.2807 59.2171C41.7266 59.2171 42.1682 59.1288 42.5798 58.9573C42.9915 58.7858 43.3651 58.5345 43.6791 58.2178L52.8673 49.0297C54.5488 47.3623 55.5743 45.1457 55.7566 42.7847C55.9389 40.4237 55.2657 38.0759 53.86 36.1702C52.4543 34.2646 50.4099 32.9282 48.1004 32.4053C45.7908 31.8823 43.3702 32.2077 41.2807 33.322ZM48.0367 44.2329L41.2807 50.9889L34.5247 44.2329C33.943 43.6502 33.6163 42.8606 33.6163 42.0372C33.6163 41.2139 33.943 40.4242 34.5247 39.8415C35.1074 39.2598 35.8971 38.9331 36.7204 38.9331C37.5437 38.9331 38.3334 39.2598 38.9161 39.8415C39.2301 40.1581 39.6037 40.4094 40.0154 40.5809C40.427 40.7524 40.8686 40.8407 41.3145 40.8407C41.7604 40.8407 42.202 40.7524 42.6136 40.5809C43.0252 40.4094 43.3988 40.1581 43.7129 39.8415C44.3028 39.2977 45.0802 39.0031 45.8824 39.0195C46.6846 39.0358 47.4494 39.3617 48.0167 39.9291C48.5841 40.4964 48.91 41.2612 48.9263 42.0634C48.9426 42.8656 48.6481 43.643 48.1043 44.2329H48.0367ZM64.9267 18.6614H43.7129L42.6319 15.2834C41.9311 13.3013 40.6313 11.5862 38.9124 10.3757C37.1935 9.16525 35.1407 8.51931 33.0384 8.52742H17.6347C14.947 8.52742 12.3694 9.59511 10.4689 11.4956C8.56836 13.3961 7.50067 15.9737 7.50067 18.6614V62.5755C7.50067 65.2632 8.56836 67.8408 10.4689 69.7413C12.3694 71.6418 14.947 72.7095 17.6347 72.7095H64.9267C67.6144 72.7095 70.1921 71.6418 72.0926 69.7413C73.9931 67.8408 75.0607 65.2632 75.0607 62.5755V28.7954C75.0607 26.1077 73.9931 23.5301 72.0926 21.6296C70.1921 19.7291 67.6144 18.6614 64.9267 18.6614ZM68.3047 62.5755C68.3047 63.4714 67.9488 64.3306 67.3153 64.9641C66.6818 65.5976 65.8226 65.9535 64.9267 65.9535H17.6347C16.7388 65.9535 15.8796 65.5976 15.2461 64.9641C14.6126 64.3306 14.2567 63.4714 14.2567 62.5755V18.6614C14.2567 17.7655 14.6126 16.9063 15.2461 16.2728C15.8796 15.6393 16.7388 15.2834 17.6347 15.2834H33.0384C33.7466 15.2816 34.4374 15.5024 35.0133 15.9146C35.5891 16.3268 36.0209 16.9095 36.2475 17.5805L38.0716 23.1204C38.2982 23.7913 38.73 24.3741 39.3058 24.7863C39.8817 25.1985 40.5725 25.4193 41.2807 25.4174H64.9267C65.8226 25.4174 66.6818 25.7733 67.3153 26.4068C67.9488 27.0403 68.3047 27.8995 68.3047 28.7954V62.5755Z" fill="#F976B0"/>
</svg>
